<?xml version="1.0" encoding="UTF-8"?>
<svg id="Layer_1" xmlns="http://www.w3.org/2000/svg" version="1.1" viewBox="0 0 300 300">
  <!-- Generator: Adobe Illustrator 29.1.0, SVG Export Plug-In . SVG Version: 2.1.0 Build 142)  -->
  <defs>
    <style>
      .st0 {
        fill: #9e1d27;
      }
    </style>
  </defs>
  <path class="st0" d="M139.03,283.15c0,6.07,4.94,11.01,11.01,11.01s11.01-4.94,11.01-11.01-4.94-11.01-11.01-11.01-11.01,4.94-11.01,11.01Z"/>
  <path class="st0" d="M139.03,250.02c0,6.07,4.94,11.01,11.01,11.01s11.01-4.94,11.01-11.01-4.94-11.01-11.01-11.01-11.01,4.94-11.01,11.01Z"/>
  <path class="st0" d="M172.15,250.02c0,6.07,4.94,11.01,11.01,11.01s11.01-4.94,11.01-11.01-4.94-11.01-11.01-11.01-11.01,4.94-11.01,11.01Z"/>
  <path class="st0" d="M205.27,216.9c0,6.07,4.94,11.01,11.01,11.01s11.01-4.94,11.01-11.01-4.94-11.01-11.01-11.01-11.01,4.94-11.01,11.01Z"/>
  <path class="st0" d="M105.91,250.02c0,6.07,4.94,11.01,11.01,11.01s11.01-4.94,11.01-11.01-4.94-11.01-11.01-11.01-11.01,4.94-11.01,11.01Z"/>
  <path class="st0" d="M172.15,216.9c0,6.07,4.94,11.01,11.01,11.01s11.01-4.94,11.01-11.01-4.94-11.01-11.01-11.01-11.01,4.94-11.01,11.01Z"/>
  <path class="st0" d="M105.91,216.9c0,6.07,4.94,11.01,11.01,11.01s11.01-4.94,11.01-11.01-4.94-11.01-11.01-11.01-11.01,4.94-11.01,11.01Z"/>
  <path class="st0" d="M72.79,216.9c0,6.07,4.94,11.01,11.01,11.01s11.01-4.94,11.01-11.01-4.94-11.01-11.01-11.01-11.01,4.94-11.01,11.01Z"/>
  <path class="st0" d="M205.27,183.78c0,6.07,4.94,11.01,11.01,11.01s11.01-4.94,11.01-11.01-4.94-11.01-11.01-11.01-11.01,4.94-11.01,11.01Z"/>
  <path class="st0" d="M72.79,183.78c0,6.07,4.94,11.01,11.01,11.01s11.01-4.94,11.01-11.01-4.94-11.01-11.01-11.01-11.01,4.94-11.01,11.01Z"/>
  <path class="st0" d="M238.4,183.78c0,6.07,4.94,11.01,11.01,11.01s11.01-4.94,11.01-11.01-4.94-11.01-11.01-11.01-11.01,4.94-11.01,11.01Z"/>
  <path class="st0" d="M238.4,150.66c0,6.07,4.94,11.01,11.01,11.01s11.01-4.94,11.01-11.01-4.94-11.01-11.01-11.01-11.01,4.94-11.01,11.01Z"/>
  <path class="st0" d="M271.52,150.66c0,6.07,4.94,11.01,11.01,11.01s11.01-4.94,11.01-11.01-4.94-11.01-11.01-11.01-11.01,4.94-11.01,11.01Z"/>
  <path class="st0" d="M271.52,117.54c0,6.07,4.94,11.01,11.01,11.01s11.01-4.94,11.01-11.01-4.94-11.01-11.01-11.01-11.01,4.94-11.01,11.01Z"/>
  <path class="st0" d="M39.67,183.78c0,6.07,4.94,11.01,11.01,11.01s11.01-4.94,11.01-11.01-4.94-11.01-11.01-11.01-11.01,4.94-11.01,11.01Z"/>
  <path class="st0" d="M39.67,150.66c0,6.07,4.94,11.01,11.01,11.01s11.01-4.94,11.01-11.01-4.94-11.01-11.01-11.01-11.01,4.94-11.01,11.01Z"/>
  <path class="st0" d="M6.55,150.66c0,6.07,4.94,11.01,11.01,11.01s11.01-4.94,11.01-11.01-4.94-11.01-11.01-11.01-11.01,4.94-11.01,11.01Z"/>
  <path class="st0" d="M6.55,117.54c0,6.07,4.94,11.01,11.01,11.01s11.01-4.94,11.01-11.01-4.94-11.01-11.01-11.01-11.01,4.94-11.01,11.01Z"/>
  <path class="st0" d="M139.03,216.9c0,6.07,4.94,11.01,11.01,11.01s11.01-4.94,11.01-11.01-4.94-11.01-11.01-11.01-11.01,4.94-11.01,11.01Z"/>
  <path class="st0" d="M139.03,183.78c0,6.07,4.94,11.01,11.01,11.01s11.01-4.94,11.01-11.01-4.94-11.01-11.01-11.01-11.01,4.94-11.01,11.01Z"/>
  <path class="st0" d="M172.15,183.78c0,6.07,4.94,11.01,11.01,11.01s11.01-4.94,11.01-11.01-4.94-11.01-11.01-11.01-11.01,4.94-11.01,11.01Z"/>
  <path class="st0" d="M205.27,150.66c0,6.07,4.94,11.01,11.01,11.01s11.01-4.94,11.01-11.01-4.94-11.01-11.01-11.01-11.01,4.94-11.01,11.01Z"/>
  <path class="st0" d="M105.91,183.78c0,6.07,4.94,11.01,11.01,11.01s11.01-4.94,11.01-11.01-4.94-11.01-11.01-11.01-11.01,4.94-11.01,11.01Z"/>
  <path class="st0" d="M139.03,150.66c0,6.07,4.94,11.01,11.01,11.01s11.01-4.94,11.01-11.01-4.94-11.01-11.01-11.01-11.01,4.94-11.01,11.01Z"/>
  <path class="st0" d="M172.15,150.66c0,6.07,4.94,11.01,11.01,11.01s11.01-4.94,11.01-11.01-4.94-11.01-11.01-11.01-11.01,4.94-11.01,11.01Z"/>
  <path class="st0" d="M105.91,150.66c0,6.07,4.94,11.01,11.01,11.01s11.01-4.94,11.01-11.01-4.94-11.01-11.01-11.01-11.01,4.94-11.01,11.01Z"/>
  <path class="st0" d="M72.79,150.66c0,6.07,4.94,11.01,11.01,11.01s11.01-4.94,11.01-11.01-4.94-11.01-11.01-11.01-11.01,4.94-11.01,11.01Z"/>
  <path class="st0" d="M205.27,117.54c0,6.07,4.94,11.01,11.01,11.01s11.01-4.94,11.01-11.01-4.94-11.01-11.01-11.01-11.01,4.94-11.01,11.01Z"/>
  <path class="st0" d="M172.15,117.54c0,6.07,4.94,11.01,11.01,11.01s11.01-4.94,11.01-11.01-4.94-11.01-11.01-11.01-11.01,4.94-11.01,11.01Z"/>
  <path class="st0" d="M105.91,117.54c0,6.07,4.94,11.01,11.01,11.01s11.01-4.94,11.01-11.01-4.94-11.01-11.01-11.01-11.01,4.94-11.01,11.01Z"/>
  <path class="st0" d="M72.79,117.54c0,6.07,4.94,11.01,11.01,11.01s11.01-4.94,11.01-11.01-4.94-11.01-11.01-11.01-11.01,4.94-11.01,11.01Z"/>
  <path class="st0" d="M205.27,84.42c0,6.07,4.94,11.01,11.01,11.01s11.01-4.94,11.01-11.01-4.94-11.01-11.01-11.01-11.01,4.94-11.01,11.01Z"/>
  <path class="st0" d="M238.4,117.54c0,6.07,4.94,11.01,11.01,11.01s11.01-4.94,11.01-11.01-4.94-11.01-11.01-11.01-11.01,4.94-11.01,11.01Z"/>
  <path class="st0" d="M238.4,84.42c0,6.07,4.94,11.01,11.01,11.01s11.01-4.94,11.01-11.01-4.94-11.01-11.01-11.01-11.01,4.94-11.01,11.01Z"/>
  <path class="st0" d="M238.4,51.3c0,6.07,4.94,11.01,11.01,11.01s11.01-4.94,11.01-11.01-4.94-11.01-11.01-11.01-11.01,4.94-11.01,11.01Z"/>
  <path class="st0" d="M271.52,84.42c0,6.07,4.94,11.01,11.01,11.01s11.01-4.94,11.01-11.01-4.94-11.01-11.01-11.01-11.01,4.94-11.01,11.01Z"/>
  <path class="st0" d="M271.52,51.3c0,6.07,4.94,11.01,11.01,11.01s11.01-4.94,11.01-11.01-4.94-11.01-11.01-11.01-11.01,4.94-11.01,11.01Z"/>
  <path class="st0" d="M271.52,18.17c0,6.07,4.94,11.01,11.01,11.01s11.01-4.94,11.01-11.01-4.94-11.01-11.01-11.01-11.01,4.94-11.01,11.01Z"/>
  <path class="st0" d="M72.79,84.42c0,6.07,4.94,11.01,11.01,11.01s11.01-4.94,11.01-11.01-4.94-11.01-11.01-11.01-11.01,4.94-11.01,11.01Z"/>
  <path class="st0" d="M39.67,117.54c0,6.07,4.94,11.01,11.01,11.01s11.01-4.94,11.01-11.01-4.94-11.01-11.01-11.01-11.01,4.94-11.01,11.01Z"/>
  <path class="st0" d="M39.67,84.42c0,6.07,4.94,11.01,11.01,11.01s11.01-4.94,11.01-11.01-4.94-11.01-11.01-11.01-11.01,4.94-11.01,11.01Z"/>
  <path class="st0" d="M6.55,84.42c0,6.07,4.94,11.01,11.01,11.01s11.01-4.94,11.01-11.01-4.94-11.01-11.01-11.01-11.01,4.94-11.01,11.01Z"/>
  <path class="st0" d="M39.67,51.3c0,6.07,4.94,11.01,11.01,11.01s11.01-4.94,11.01-11.01-4.94-11.01-11.01-11.01-11.01,4.94-11.01,11.01Z"/>
  <path class="st0" d="M6.55,51.3c0,6.07,4.94,11.01,11.01,11.01s11.01-4.94,11.01-11.01-4.94-11.01-11.01-11.01-11.01,4.94-11.01,11.01Z"/>
  <path class="st0" d="M6.55,18.17c0,6.07,4.94,11.01,11.01,11.01s11.01-4.94,11.01-11.01-4.94-11.01-11.01-11.01-11.01,4.94-11.01,11.01Z"/>
</svg>