<?xml version="1.0" encoding="UTF-8"?>
<svg id="Layer_1" data-name="Layer 1" xmlns="http://www.w3.org/2000/svg" viewBox="0 0 400 400">
  <defs>
    <style>
      .cls-1 {
        fill: #d2b886;
      }
    </style>
  </defs>
  <path class="cls-1" d="M297.2,395.69H78.95c-22.23,0-42.13-11.49-53.24-30.74-11.11-19.25-11.11-42.23,0-61.48l96.55-167.23c7.14-12.36,10.91-26.45,10.91-40.72v-46.12h-1.42c-13.25,0-24.02-10.78-24.02-24.02S118.51,1.36,131.76,1.36h112.64c13.25,0,24.02,10.78,24.02,24.02s-10.78,24.02-24.02,24.02h-1.42v46.11c0,14.28,3.77,28.36,10.91,40.72l96.55,167.24h0c11.11,19.25,11.11,42.23,0,61.48s-31.02,30.74-53.24,30.74ZM131.76,15.36c-5.53,0-10.02,4.5-10.02,10.02s4.5,10.02,10.02,10.02h8.42c3.87,0,7,3.13,7,7v53.12c0,16.73-4.42,33.23-12.79,47.72l-96.55,167.23c-8.58,14.87-8.58,32.62,0,47.48s23.95,23.74,41.12,23.74h218.25c17.17,0,32.54-8.88,41.12-23.74s8.58-32.62,0-47.48l-96.55-167.24c-8.37-14.49-12.79-30.99-12.79-47.72v-53.11c0-3.87,3.13-7,7-7h8.42c5.53,0,10.02-4.5,10.02-10.02s-4.5-10.02-10.02-10.02h-112.64Z"/>
  <path class="cls-1" d="M242.45,329.31c-14.57,0-26.43-11.85-26.43-26.43s11.85-26.43,26.43-26.43,26.43,11.86,26.43,26.43-11.86,26.43-26.43,26.43ZM242.45,290.46c-6.85,0-12.43,5.57-12.43,12.43s5.57,12.43,12.43,12.43,12.43-5.57,12.43-12.43-5.57-12.43-12.43-12.43Z"/>
  <path class="cls-1" d="M131.85,349.53c-17.55,0-31.83-14.28-31.83-31.83s14.28-31.83,31.83-31.83,31.83,14.28,31.83,31.83-14.28,31.83-31.83,31.83ZM131.85,299.87c-9.83,0-17.83,8-17.83,17.83s8,17.83,17.83,17.83,17.83-8,17.83-17.83-8-17.83-17.83-17.83Z"/>
  <path class="cls-1" d="M181.82,263.72c-13.67,0-24.79-11.12-24.79-24.79s11.12-24.79,24.79-24.79,24.79,11.12,24.79,24.79-11.12,24.79-24.79,24.79ZM181.82,228.14c-5.95,0-10.79,4.84-10.79,10.79s4.84,10.79,10.79,10.79,10.79-4.84,10.79-10.79-4.84-10.79-10.79-10.79Z"/>
  <path class="cls-1" d="M228.92,154.23c-12.96,3.96-14.99,4.8-24.73,9.63-15.57,7.7-27.86,13.78-49.45,7.17-5.72-1.75-11.62-4.27-17.32-6.71-6.86-2.93-13.94-5.96-20.97-7.77-3.75-.96-7.56,1.29-8.53,5.03-.96,3.74,1.29,7.56,5.03,8.53,5.99,1.54,12.29,4.24,18.96,7.09,6.04,2.58,12.29,5.25,18.72,7.22,7.9,2.42,14.92,3.42,21.3,3.42,15.36,0,27.05-5.78,38.45-11.42,9.05-4.48,16.3-5.24,25.8-9.37,2.03-.88,4.39-5.33,2.76-8.59-1.2-2.41-4.63-5.87-10.03-4.22Z"/>
</svg>