<?xml version="1.0" encoding="UTF-8"?>
<svg id="Layer_1" data-name="Layer 1" xmlns="http://www.w3.org/2000/svg" viewBox="0 0 400 400">
  <defs>
    <style>
      .cls-1 {
        fill: #d2b886;
      }
    </style>
  </defs>
  <path class="cls-1" d="M109.88,151.24c5.04,1.91,9.36,5.48,12.35,10.29,13.29-28.01,45.27-40.87,77.03-40.87,32.21,0,64.65,13.23,77.58,42.08,2.8-5.07,7.02-8.91,12.02-11.08-10.76-20.59-30.26-35.48-55.84-42.34,13.59-10.28,22.38-26.6,22.38-44.93,0-31.02-25.18-56.26-56.13-56.26s-56.17,25.24-56.17,56.26c0,18.34,8.8,34.65,22.39,44.93-25.4,6.81-44.81,21.55-55.62,41.92ZM158.68,64.38c0-22.44,18.21-40.69,40.6-40.69s40.56,18.25,40.56,40.69-18.19,40.7-40.56,40.7-40.6-18.26-40.6-40.7Z"/>
  <path class="cls-1" d="M395.57,235.29c-1.16-3.57-4.34-5.93-8.54-6.33l-57.06-5.2-22.72-52.35c-1.65-3.87-4.89-6.18-8.67-6.18s-7.01,2.3-8.66,6.14l-22.59,52.49-35.27,3.31,6.52,15.03,31.03-2.91c4.96-.48,9.78-4,11.7-8.52l17.29-40.17,17.39,40.08c1.95,4.58,6.79,8.08,11.73,8.52l43.62,3.97-32.86,28.86c-3.72,3.29-5.55,8.96-4.44,13.75l9.69,42.6-37.76-22.3c-4.2-2.45-10.35-2.41-14.44.04l-4.18,2.48-20.6,18.08,2.46,10.8,29.57-17.55,49.37,29.15c4.39,2.52,9.47,1.66,12.23-1.8,1.05-1.31,2.66-4.16,1.69-8.44l-12.67-55.68,42.97-37.74c3.15-2.77,4.33-6.55,3.18-10.12Z"/>
  <path class="cls-1" d="M105.72,304.87c-3.83-1.11-8.35-.68-11.56,1.25l-37.69,22.37,9.58-42.61c1.09-4.84-.76-10.5-4.49-13.75l-32.92-28.75,43.61-4.09c4.96-.48,9.77-4,11.68-8.52l17.3-40.18,17.4,40.1c1.96,4.58,6.8,8.07,11.73,8.51l28.75,2.62,6.48-15.05-32.99-3.01-22.73-52.41c-1.66-3.84-4.9-6.13-8.65-6.13s-6.98,2.29-8.66,6.14l-22.6,52.49-57.02,5.35c-4.18.38-7.37,2.74-8.53,6.32-1.17,3.58.03,7.37,3.2,10.15l43.08,37.62-12.53,55.73c-.94,4.29.68,7.12,1.73,8.42,1.67,2.08,4.19,3.27,6.9,3.27,1.81,0,3.61-.52,5.38-1.56l49.26-29.24,27.44,16.2,2.08-9.25-25.21-22.01Z"/>
  <path class="cls-1" d="M144.26,388.69c-2.72,0-5.23-1.2-6.91-3.28-1.05-1.31-2.67-4.15-1.71-8.43l12.52-55.73-43.08-37.6c-3.16-2.77-4.36-6.55-3.2-10.13,1.15-3.58,4.33-5.95,8.49-6.35l57.08-5.35,22.59-52.47c1.66-3.85,4.89-6.16,8.66-6.16s6.98,2.29,8.65,6.12l22.75,52.42,57.05,5.19c4.2.4,7.39,2.77,8.55,6.35,1.16,3.58-.04,7.36-3.2,10.12l-42.96,37.71,12.66,55.69c.98,4.29-.63,7.14-1.68,8.45-2.77,3.49-7.89,4.32-12.26,1.77l-49.34-29.13-49.26,29.23c-1.72,1.03-3.54,1.57-5.38,1.57ZM126.1,281.33l32.94,28.75c3.75,3.28,5.59,8.94,4.49,13.78l-9.57,42.59,37.69-22.36c4.11-2.47,10.26-2.5,14.45-.03l37.74,22.28-9.69-42.58c-1.1-4.81.71-10.49,4.44-13.77l32.87-28.85-43.62-3.96c-4.91-.43-9.75-3.93-11.72-8.5l-17.4-40.11-17.3,40.18c-1.93,4.52-6.74,8.03-11.68,8.5l-43.63,4.09Z"/>
</svg>