<?xml version="1.0" encoding="UTF-8"?>
<svg id="Layer_1" xmlns="http://www.w3.org/2000/svg" version="1.1" viewBox="0 0 300 300">
  <!-- Generator: Adobe Illustrator 29.1.0, SVG Export Plug-In . SVG Version: 2.1.0 Build 142)  -->
  <defs>
    <style>
      .st0 {
        fill: #fff;
      }

      .st1 {
        fill: #9e1d27;
      }
    </style>
  </defs>
  <path class="st0" d="M150,2.64C68.62,2.64,2.64,68.62,2.64,150s65.97,147.36,147.36,147.36,147.36-65.97,147.36-147.36S231.38,2.64,150,2.64ZM228.8,195.9c3.47,3.47,3.47,9.1,0,12.57l-20.33,20.33c-3.47,3.47-9.1,3.47-12.57,0l-45.9-45.9-45.9,45.9c-3.47,3.47-9.1,3.47-12.57,0l-20.33-20.33c-3.47-3.47-3.47-9.1,0-12.57l45.9-45.9-45.9-45.9c-3.47-3.47-3.47-9.1,0-12.57l20.33-20.33c3.47-3.47,9.1-3.47,12.57,0l45.9,45.9,45.9-45.9c3.47-3.47,9.1-3.47,12.57,0l20.33,20.33c3.47,3.47,3.47,9.1,0,12.57l-45.9,45.9,45.9,45.9h0Z"/>
  <path class="st1" d="M228.8,91.53l-20.33-20.33c-3.47-3.47-9.1-3.47-12.57,0l-45.9,45.9-45.9-45.9c-3.47-3.47-9.1-3.47-12.57,0l-20.33,20.33c-3.47,3.47-3.47,9.1,0,12.57l45.9,45.9-45.9,45.9c-3.47,3.47-3.47,9.1,0,12.57l20.33,20.33c3.47,3.47,9.1,3.47,12.57,0l45.9-45.9,45.9,45.9c3.47,3.47,9.1,3.47,12.57,0l20.33-20.33c3.47-3.47,3.47-9.1,0-12.57l-45.9-45.9,45.9-45.9c3.47-3.47,3.47-9.1,0-12.57h0Z"/>
</svg>