<?xml version="1.0" encoding="UTF-8"?>
<svg id="Layer_1" data-name="Layer 1" xmlns="http://www.w3.org/2000/svg" viewBox="0 0 150 150">
  <defs>
    <style>
      .cls-1 {
        fill: #fff;
      }

      .cls-1, .cls-2, .cls-3 {
        stroke-width: 0px;
      }

      .cls-2 {
        fill: #231f20;
      }

      .cls-3 {
        fill: #d3b885;
      }
    </style>
  </defs>
  <path class="cls-1" d="m38.82,137.64l14.27,1.84,12.48,7.16,13.88-3.76,14.27,1.84,11.39-8.78,13.88-3.76,7.16-12.47,11.39-8.79,1.84-14.27,7.16-12.47-3.76-13.88,1.84-14.27-8.78-11.39-3.76-13.88-12.47-7.16-8.78-11.39-14.27-1.84-12.47-7.16-13.88,3.76-14.27-1.84-11.39,8.78-13.88,3.76-7.16,12.47-11.39,8.79-1.84,14.27-7.16,12.47,3.76,13.88-1.84,14.27,8.78,11.39,3.76,13.88,12.47,7.16,8.79,11.39Z"/>
  <g>
    <g>
      <path class="cls-2" d="m17.75,59.78l.34-1.13,3.22.96c.21.51.33,1.06.35,1.66.02.59-.06,1.19-.23,1.78-.25.83-.65,1.53-1.22,2.09s-1.22.93-1.98,1.12c-.75.19-1.53.17-2.33-.07-.8-.24-1.47-.65-2-1.22-.53-.57-.88-1.25-1.04-2.03-.16-.78-.12-1.59.13-2.43.2-.66.48-1.22.86-1.7s.83-.83,1.36-1.09l.51.95c-.83.47-1.39,1.17-1.67,2.11-.19.63-.22,1.23-.1,1.81s.38,1.08.78,1.51c.4.42.9.73,1.51.9.6.18,1.18.2,1.74.06.57-.14,1.06-.42,1.49-.83.42-.42.73-.93.91-1.56.22-.73.23-1.43.05-2.09l-2.69-.8Z"/>
      <path class="cls-2" d="m23.25,56.41c-.65.46-1.37.71-2.14.77-.78.05-1.54-.1-2.28-.47-.74-.36-1.32-.88-1.75-1.53-.43-.65-.65-1.38-.68-2.17-.03-.79.14-1.57.53-2.36.38-.77.9-1.38,1.55-1.84.65-.45,1.36-.7,2.14-.76.78-.05,1.53.11,2.28.48.75.38,1.33.89,1.76,1.53.43.65.65,1.37.68,2.16.03.79-.14,1.58-.53,2.35-.39.78-.9,1.39-1.56,1.84Zm.95-4.05c-.03-.58-.21-1.11-.53-1.6-.32-.48-.76-.86-1.32-1.14s-1.13-.4-1.71-.36c-.58.04-1.11.22-1.59.54-.48.32-.86.77-1.14,1.33-.28.56-.41,1.14-.38,1.73s.2,1.12.53,1.6c.32.49.76.87,1.32,1.15s1.13.4,1.71.36c.58-.04,1.12-.22,1.6-.55.48-.33.87-.78,1.15-1.35.28-.56.41-1.14.37-1.72Z"/>
      <path class="cls-2" d="m28.04,47.79c-.72.33-1.47.46-2.24.38-.78-.08-1.5-.36-2.16-.86-.66-.49-1.15-1.09-1.45-1.82-.31-.72-.4-1.47-.3-2.26.11-.79.42-1.53.93-2.23.51-.69,1.13-1.21,1.85-1.54.72-.33,1.47-.46,2.24-.38.77.08,1.49.37,2.16.86.67.5,1.16,1.1,1.46,1.82.3.71.4,1.47.29,2.25-.11.79-.42,1.53-.93,2.21-.51.7-1.13,1.22-1.85,1.55Zm1.64-3.82c.07-.58-.01-1.13-.24-1.66-.23-.54-.6-.99-1.1-1.36-.5-.37-1.04-.59-1.62-.65s-1.13.02-1.66.26c-.53.23-.98.61-1.36,1.11-.38.51-.6,1.05-.67,1.64-.07.59,0,1.15.24,1.67.23.53.6.99,1.1,1.36.5.37,1.04.59,1.62.65s1.13-.02,1.67-.26.99-.62,1.37-1.12c.37-.51.6-1.05.66-1.63Z"/>
      <path class="cls-2" d="m27.7,35.14l2.63-2.5c.66-.62,1.37-1.05,2.13-1.27.76-.22,1.5-.23,2.24-.03.73.21,1.38.62,1.96,1.23s.95,1.29,1.12,2.03c.17.74.12,1.49-.15,2.23-.26.75-.73,1.43-1.38,2.06l-2.63,2.5-5.92-6.24Zm7.76,3.03c.51-.48.86-1,1.05-1.56.2-.56.23-1.12.11-1.67s-.41-1.06-.85-1.52c-.44-.46-.93-.78-1.47-.93-.54-.15-1.1-.15-1.67.02-.57.17-1.11.49-1.61.97l-1.69,1.6,4.45,4.69,1.69-1.6Z"/>
      <path class="cls-2" d="m50.24,29.01l-3.1-5.45-.13,6.07-.49.28-5.26-2.98,3.07,5.42-1.03.58-4.24-7.48.88-.5,6.1,3.49.1-7,.88-.5,4.26,7.48-1.03.58Z"/>
      <path class="cls-2" d="m57.68,23.82l-4.31,1.52-.18,2.34-1.2.42.82-9.41,1.15-.41,6.54,6.82-1.22.43-1.61-1.72Zm-.73-.79l-3.15-3.36-.35,4.59,3.5-1.23Z"/>
      <path class="cls-2" d="m67.28,15.16l1.49,8.47-.99.18-6.19-5.43,1.11,6.32-1.21.21-1.49-8.47.99-.18,6.19,5.43-1.11-6.32,1.21-.21Z"/>
      <path class="cls-2" d="m71.79,22.6c-.65-.64-.99-1.58-1.01-2.81l-.08-4.89,1.23-.02.08,4.84c.03,1.84.85,2.75,2.46,2.73.79-.01,1.39-.25,1.79-.71.41-.46.61-1.16.59-2.09l-.08-4.85,1.19-.02.08,4.89c.02,1.23-.28,2.19-.91,2.84-.63.66-1.52,1-2.66,1.02-1.15.02-2.04-.29-2.69-.94Z"/>
      <path class="cls-2" d="m82.55,16.35l-.43,2.97,4.27.61-.15,1.05-4.27-.61-.49,3.44-1.22-.18,1.22-8.52,6.01.86-.15,1.06-4.79-.69Z"/>
      <path class="cls-2" d="m93.12,24.17l-4.39-1.26-1.5,1.8-1.22-.35,6.12-7.19,1.17.33,1.38,9.35-1.24-.36-.31-2.33Zm-.14-1.06l-.62-4.56-2.95,3.54,3.57,1.03Z"/>
      <path class="cls-2" d="m97.06,27.48c-.47-.64-.74-1.34-.82-2.11-.08-.77.06-1.53.41-2.29.35-.76.85-1.36,1.48-1.8s1.35-.69,2.14-.74c.79-.05,1.58.1,2.36.46.61.28,1.12.65,1.53,1.08.41.44.7.95.87,1.51l-1.05.37c-.3-.89-.89-1.54-1.77-1.94-.58-.27-1.17-.38-1.75-.34-.59.05-1.12.23-1.6.57s-.85.79-1.11,1.35c-.26.56-.36,1.13-.31,1.72.05.58.25,1.11.6,1.59.35.48.81.85,1.39,1.12.87.41,1.75.43,2.63.08l.4,1.04c-.54.23-1.12.34-1.72.31-.61-.03-1.22-.18-1.82-.46-.78-.36-1.4-.86-1.87-1.5Z"/>
      <path class="cls-2" d="m108.57,25.58l-2.48-1.59.58-.9,5.99,3.84-.58.9-2.48-1.59-4.07,6.34-1.02-.65,4.07-6.34Z"/>
      <path class="cls-2" d="m109.89,34.55c-.06-.91.31-1.83,1.12-2.77l3.19-3.71.93.8-3.16,3.67c-1.2,1.4-1.19,2.63.03,3.68.6.51,1.2.73,1.81.66.61-.07,1.22-.46,1.84-1.17l3.16-3.67.9.78-3.19,3.71c-.81.94-1.67,1.44-2.58,1.52-.91.08-1.8-.26-2.67-1-.87-.75-1.33-1.58-1.39-2.5Z"/>
      <path class="cls-2" d="m119.26,45.25l.82-3.12c-.16-.16-.28-.3-.37-.4l-1.37-1.62-2,1.69-.79-.93,6.57-5.56,2.17,2.56c.72.85,1.08,1.69,1.09,2.53s-.35,1.55-1.06,2.15c-.51.43-1.05.67-1.61.72s-1.13-.09-1.68-.41l-.89,3.42-.86-1.03Zm2.76-3.18c.52.09,1.02-.06,1.49-.46.48-.41.71-.87.7-1.4-.01-.52-.27-1.09-.77-1.68l-1.35-1.6-2.95,2.5,1.35,1.6c.5.59,1.02.94,1.54,1.04Z"/>
      <path class="cls-2" d="m128.15,42.94l.68,1.02-7.14,4.79-.68-1.02,7.14-4.79Z"/>
      <path class="cls-2" d="m134.03,53.3l-7.66,3.92-.46-.9,3.36-7.52-5.71,2.93-.56-1.09,7.66-3.92.46.9-3.36,7.52,5.71-2.93.56,1.09Z"/>
      <path class="cls-2" d="m133.1,63.5l.36,1.12-3.2,1.02c-.46-.3-.87-.69-1.22-1.17s-.62-1.02-.8-1.6c-.26-.82-.32-1.63-.17-2.41.15-.78.49-1.46,1-2.04.52-.58,1.17-1,1.97-1.25.8-.25,1.58-.29,2.34-.12s1.42.54,2,1.09c.57.55.99,1.25,1.25,2.09.21.65.29,1.28.25,1.89s-.21,1.16-.51,1.66l-.96-.49c.42-.86.49-1.75.19-2.68-.2-.62-.51-1.14-.94-1.55s-.93-.68-1.49-.81-1.15-.09-1.76.09c-.59.19-1.08.5-1.47.93-.39.43-.65.95-.76,1.53-.12.58-.08,1.18.12,1.8.23.73.61,1.32,1.14,1.75l2.67-.85Z"/>
    </g>
    <path class="cls-3" d="m65.3,148.67l-12.83-7.36-14.67-1.89-9.03-11.71-12.83-7.36-3.86-14.28-9.03-11.71,1.89-14.67-3.86-14.28,7.36-12.83,1.9-14.67,11.71-9.03,7.36-12.83,14.28-3.86,11.71-9.03,14.67,1.9,14.28-3.86,12.83,7.36,14.67,1.89,9.03,11.71,12.83,7.36,3.86,14.28,9.03,11.71-1.9,14.67,3.86,14.28-7.36,12.83-1.9,14.67-11.71,9.03-7.36,12.83-14.28,3.86-11.71,9.03-14.67-1.9-14.28,3.86Zm-26.48-11.03l14.27,1.84,12.48,7.16,13.88-3.76,14.27,1.84,11.39-8.78,13.88-3.76,7.16-12.47,11.39-8.79,1.84-14.27,7.16-12.47-3.76-13.88,1.84-14.27-8.78-11.39-3.76-13.88-12.47-7.16-8.78-11.39-14.27-1.84-12.47-7.16-13.88,3.76-14.27-1.84-11.39,8.78-13.88,3.76-7.16,12.47-11.39,8.79-1.84,14.27-7.16,12.47,3.76,13.88-1.84,14.27,8.78,11.39,3.76,13.88,12.47,7.16,8.79,11.39Z"/>
    <g>
      <path class="cls-3" d="m74.87,125.16c-16.85,0-32.63-9.03-41.18-23.58l1.63-.96c8.21,13.97,23.37,22.65,39.55,22.65s31.34-8.68,39.55-22.65l1.63.96c-8.55,14.54-24.33,23.58-41.18,23.58Z"/>
      <path class="cls-3" d="m32.54,59.78l-1.74-.73c7.44-17.84,24.74-29.37,44.07-29.37s36.49,11.44,43.98,29.15l-1.74.74c-7.19-17.01-23.78-28-42.24-28s-35.18,11.07-42.33,28.21Z"/>
    </g>
    <g>
      <circle class="cls-3" cx="115.32" cy="117.44" r="2.98"/>
      <circle class="cls-3" cx="34.33" cy="117.44" r="2.98"/>
    </g>
    <g>
      <path class="cls-2" d="m50.42,108.26c-.55-.3-.98-.72-1.3-1.25s-.47-1.13-.47-1.79.16-1.26.48-1.79c.31-.53.75-.95,1.3-1.25s1.17-.45,1.86-.45c.56,0,1.06.1,1.52.29s.85.47,1.16.84l-.82.76c-.49-.53-1.09-.79-1.81-.79-.47,0-.88.1-1.25.31-.37.21-.65.49-.86.85-.21.36-.31.78-.31,1.23s.1.87.31,1.23c.21.36.49.65.86.85.37.2.78.3,1.25.3.72,0,1.32-.26,1.81-.8l.82.78c-.32.36-.71.65-1.17.84-.46.19-.97.29-1.52.29-.68,0-1.3-.15-1.86-.45Z"/>
      <path class="cls-2" d="m61.27,107.55v1.06h-5.09v-6.78h4.95v1.05h-3.69v1.77h3.27v1.03h-3.27v1.87h3.83Z"/>
      <path class="cls-2" d="m67.11,108.61l-1.39-1.99c-.06,0-.15.01-.26.01h-1.53v1.97h-1.26v-6.78h2.79c.59,0,1.1.09,1.54.29.43.19.77.47,1,.83s.35.79.35,1.29-.13.95-.37,1.32c-.25.36-.61.64-1.07.82l1.56,2.23h-1.35Zm-.46-5.37c-.28-.23-.7-.35-1.25-.35h-1.47v2.7h1.47c.55,0,.97-.12,1.25-.35.28-.23.43-.57.43-1s-.14-.76-.43-1Z"/>
      <path class="cls-2" d="m71.03,102.89h-2.25v-1.06h5.75v1.06h-2.25v5.72h-1.26v-5.72Z"/>
      <path class="cls-2" d="m75.49,101.83h1.26v6.78h-1.26v-6.78Z"/>
      <path class="cls-2" d="m79.84,102.88v2.07h3.27v1.06h-3.27v2.6h-1.26v-6.78h4.95v1.05h-3.69Z"/>
      <path class="cls-2" d="m84.75,101.83h1.26v6.78h-1.26v-6.78Z"/>
      <path class="cls-2" d="m92.93,107.55v1.06h-5.09v-6.78h4.95v1.05h-3.69v1.77h3.27v1.03h-3.27v1.87h3.83Z"/>
      <path class="cls-2" d="m94.33,101.83h2.96c.72,0,1.37.14,1.93.42.56.28,1,.68,1.31,1.19.31.52.46,1.1.46,1.78s-.16,1.26-.46,1.77c-.31.52-.75.91-1.31,1.19-.56.28-1.21.42-1.93.42h-2.96v-6.78Zm2.9,5.72c.5,0,.94-.1,1.31-.29.38-.19.67-.46.87-.82.2-.35.31-.76.31-1.22s-.1-.88-.31-1.23-.49-.62-.87-.81c-.38-.19-.81-.29-1.31-.29h-1.64v4.65h1.64Z"/>
    </g>
    <g>
      <path class="cls-3" d="m74.38,51.15l-1.15-2.34c-.07-.14-.21-.24-.37-.27l-2.58-.38c-.4-.06-.56-.55-.27-.83l1.87-1.82c.12-.11.17-.27.14-.43l-.44-2.57c-.07-.4.35-.7.71-.52l2.31,1.21c.14.07.31.07.46,0l2.31-1.21c.36-.19.78.12.71.52l-.44,2.57c-.03.16.03.32.14.43l1.87,1.82c.29.28.13.78-.27.83l-2.58.38c-.16.02-.3.12-.37.27l-1.15,2.34c-.18.36-.7.36-.88,0Z"/>
      <path class="cls-3" d="m62.67,52.63l-1.68-2c-.1-.12-.26-.19-.42-.17l-2.6.25c-.4.04-.68-.4-.46-.75l1.38-2.21c.09-.14.1-.31.03-.45l-1.04-2.39c-.16-.37.17-.77.57-.67l2.53.63c.16.04.32,0,.44-.11l1.96-1.73c.3-.27.78-.07.81.33l.18,2.6c.01.16.1.31.24.39l2.25,1.33c.35.21.31.72-.07.88l-2.42.98c-.15.06-.26.19-.29.35l-.57,2.55c-.09.4-.59.52-.85.21Z"/>
      <path class="cls-3" d="m51.64,56.85l-2.1-1.54c-.13-.1-.3-.12-.45-.07l-2.46.86c-.38.13-.75-.23-.63-.62l.82-2.48c.05-.15.02-.32-.07-.45l-1.58-2.08c-.25-.32-.01-.79.39-.79h2.61c.16.01.31-.06.4-.2l1.49-2.14c.23-.33.74-.26.87.13l.79,2.48c.05.15.17.27.32.32l2.5.76c.39.12.47.63.14.87l-2.12,1.52c-.13.09-.21.25-.2.41l.05,2.61c0,.41-.45.64-.78.4Z"/>
      <path class="cls-3" d="m86.98,52.63l1.68-2c.1-.12.26-.19.42-.17l2.6.25c.4.04.68-.4.46-.75l-1.38-2.21c-.09-.14-.1-.31-.03-.45l1.04-2.39c.16-.37-.17-.77-.57-.67l-2.53.63c-.16.04-.32,0-.44-.11l-1.96-1.73c-.3-.27-.78-.07-.81.33l-.18,2.6c-.01.16-.1.31-.24.39l-2.25,1.33c-.35.21-.31.72.07.88l2.42.98c.15.06.26.19.29.35l.57,2.55c.09.4.59.52.85.21Z"/>
      <path class="cls-3" d="m98.01,56.85l2.1-1.54c.13-.1.3-.12.45-.07l2.46.86c.38.13.75-.23.63-.62l-.82-2.48c-.05-.15-.02-.32.07-.45l1.58-2.08c.25-.32.01-.79-.39-.79h-2.61c-.16.01-.31-.06-.4-.2l-1.49-2.14c-.23-.33-.74-.26-.87.13l-.79,2.48c-.05.15-.17.27-.32.32l-2.5.76c-.39.12-.47.63-.14.87l2.12,1.52c.13.09.21.25.2.41l-.05,2.61c0,.41.45.64.78.4Z"/>
    </g>
    <g>
      <path class="cls-2" d="m44.1,80.63h5.79v13.12c-1.69,1.35-3.67,2.38-5.93,3.1-2.25.72-4.58,1.08-6.96,1.08-3.36,0-6.38-.73-9.08-2.19-2.7-1.46-4.81-3.47-6.35-6.04-1.54-2.57-2.31-5.47-2.31-8.7s.77-6.13,2.31-8.7c1.54-2.57,3.66-4.58,6.37-6.04,2.71-1.46,5.76-2.19,9.15-2.19,2.76,0,5.26.45,7.52,1.36,2.26.91,4.15,2.24,5.69,4l-3.86,3.76c-2.51-2.51-5.53-3.76-9.07-3.76-2.32,0-4.38.49-6.19,1.46-1.8.97-3.21,2.34-4.23,4.09-1.02,1.76-1.53,3.76-1.53,6.02s.51,4.17,1.53,5.92c1.02,1.75,2.43,3.13,4.23,4.14,1.8,1,3.85,1.5,6.14,1.5,2.57,0,4.83-.56,6.77-1.69v-10.25Z"/>
      <path class="cls-2" d="m88.15,97.46l-.05-21.82-10.82,18.05h-2.73l-10.82-17.77v21.54h-5.83v-32.92h5.03l13.07,21.82,12.83-21.82h5.03l.05,32.92h-5.78Z"/>
      <path class="cls-2" d="m123.82,65.96c2.12.94,3.74,2.29,4.87,4.04,1.13,1.76,1.69,3.84,1.69,6.25s-.56,4.46-1.69,6.23c-1.13,1.77-2.75,3.12-4.87,4.07-2.12.94-4.6,1.41-7.45,1.41h-7.43v9.5h-6.11v-32.92h13.54c2.85,0,5.34.47,7.45,1.41Zm-1.67,15.14c1.38-1.13,2.07-2.74,2.07-4.84s-.69-3.71-2.07-4.84c-1.38-1.13-3.4-1.69-6.07-1.69h-7.15v13.07h7.15c2.66,0,4.68-.56,6.07-1.69Z"/>
    </g>
    <g>
      <path class="cls-2" d="m50.46,123.98c.37.51.57,1.06.6,1.66.02.6-.13,1.2-.46,1.83-.33.61-.75,1.08-1.26,1.39-.51.32-1.08.46-1.71.44-.63-.02-1.28-.22-1.96-.57l-1.76-.94-1.31,2.45-1.45-.77,4.52-8.49,3.2,1.71c.68.36,1.2.79,1.57,1.3Zm-2.47,3.7c.48-.12.86-.45,1.15-.99s.35-1.04.18-1.51c-.17-.47-.57-.87-1.2-1.2l-1.69-.9-1.79,3.37,1.69.9c.63.33,1.19.45,1.67.33Z"/>
      <path class="cls-2" d="m55.51,135.87l-.76-3.26c-.07-.02-.18-.05-.33-.1l-1.88-.66-.93,2.65-1.55-.54,3.2-9.08,3.42,1.21c.72.25,1.31.6,1.75,1.05s.72.96.84,1.55c.12.59.06,1.21-.18,1.88-.24.68-.6,1.22-1.08,1.6-.48.38-1.05.6-1.7.64l.86,3.65-1.66-.58Zm1.97-7.38c-.24-.43-.7-.77-1.37-1.01l-1.81-.64-1.27,3.62,1.81.64c.67.23,1.24.26,1.7.07.46-.19.79-.58.99-1.16.2-.58.19-1.08-.05-1.52Z"/>
      <path class="cls-2" d="m65.85,135.93l-4.34-.78-1.25,2.03-1.66-.3,5.62-8.76,1.59.29,2.21,10.17-1.69-.3-.47-2.35Zm-.29-1.47l-.89-4.43-2.37,3.84,3.26.59Z"/>
      <path class="cls-2" d="m71.64,138.2c-.71-.44-1.26-1.04-1.65-1.81-.39-.76-.57-1.61-.55-2.56.02-.94.25-1.78.67-2.53.43-.74,1.01-1.32,1.73-1.73.73-.41,1.54-.61,2.43-.59.72.02,1.38.17,1.97.46s1.09.7,1.49,1.23l-1.08,1.06c-.62-.76-1.4-1.16-2.33-1.18-.61-.01-1.15.12-1.63.4s-.87.67-1.15,1.18c-.28.51-.43,1.09-.44,1.74-.01.65.11,1.23.36,1.75.26.52.62.93,1.1,1.23.47.3,1.01.46,1.62.47.93.02,1.73-.34,2.38-1.09l1.04,1.12c-.42.51-.94.9-1.55,1.16-.61.26-1.27.38-1.99.37-.89-.02-1.69-.25-2.4-.69Z"/>
      <path class="cls-2" d="m80.76,130.35l-2.9.35-.18-1.5,7.43-.89.18,1.5-2.9.35.96,8.05-1.63.2-.96-8.05Z"/>
      <path class="cls-2" d="m86.02,128l1.6-.36,2.1,9.39-1.6.36-2.1-9.39Z"/>
      <path class="cls-2" d="m94.14,135.31c-.82-.17-1.54-.54-2.17-1.12-.63-.58-1.1-1.31-1.41-2.21-.31-.89-.39-1.76-.24-2.6.14-.85.49-1.59,1.03-2.22.54-.64,1.23-1.1,2.07-1.39.68-.23,1.35-.32,2.01-.25.65.06,1.26.28,1.82.64l-.65,1.37c-.85-.5-1.71-.6-2.59-.3-.57.2-1.04.51-1.4.94-.36.43-.58.93-.67,1.5-.09.57-.02,1.17.19,1.78.21.62.53,1.12.95,1.52s.91.65,1.45.77c.55.12,1.11.08,1.68-.12.88-.3,1.5-.92,1.86-1.85l1.36.69c-.22.63-.57,1.17-1.04,1.63-.48.46-1.06.8-1.74,1.04-.84.29-1.67.35-2.49.18Z"/>
      <path class="cls-2" d="m107.36,128.41l.69,1.33-5.87,3.05-4.43-8.54,5.72-2.97.69,1.33-4.26,2.21,1.15,2.22,3.78-1.96.68,1.31-3.78,1.96,1.22,2.35,4.42-2.29Z"/>
    </g>
  </g>
</svg>