<?xml version="1.0" encoding="UTF-8"?>
<svg id="Layer_1" data-name="Layer 1" xmlns="http://www.w3.org/2000/svg" xmlns:xlink="http://www.w3.org/1999/xlink" viewBox="0 0 150 150">
  <defs>
    <style>
      .cls-1, .cls-2, .cls-3 {
        stroke-width: 0px;
      }

      .cls-1, .cls-4 {
        fill: #231f20;
      }

      .cls-5 {
        clip-path: url(#clippath-1);
      }

      .cls-2 {
        fill: #d3b885;
      }

      .cls-6 {
        clip-path: url(#clippath);
      }

      .cls-3 {
        fill: #fff;
      }
    </style>
    <clipPath id="clippath">
      <polygon class="cls-1" points="140.73 125.03 123.1 132.37 115.76 150 62.34 96.58 87.31 71.61 140.73 125.03"/>
    </clipPath>
    <clipPath id="clippath-1">
      <polygon class="cls-1" points="10.28 125.03 27.91 132.37 35.25 150 88.67 96.58 63.7 71.61 10.28 125.03"/>
    </clipPath>
  </defs>
  <g>
    <g>
      <polygon class="cls-4" points="140.73 125.03 123.1 132.37 115.76 150 62.34 96.58 87.31 71.61 140.73 125.03"/>
      <g class="cls-6">
        <polygon class="cls-1" points="110.19 150 140.73 122.19 140.73 150 110.19 150"/>
        <polygon class="cls-1" points="109.21 150 140.73 121.3 140.73 122.19 110.19 150 109.21 150"/>
        <polygon class="cls-1" points="108.22 150 140.73 120.4 140.73 121.3 109.21 150 108.22 150"/>
        <polygon class="cls-1" points="107.24 150 140.73 119.5 140.73 120.4 108.22 150 107.24 150"/>
        <polygon class="cls-1" points="106.25 150 140.73 118.61 140.73 119.5 107.24 150 106.25 150"/>
        <polygon class="cls-1" points="105.27 150 140.73 117.71 140.73 118.61 106.25 150 105.27 150"/>
        <polygon class="cls-1" points="104.28 150 140.73 116.81 140.73 117.71 105.27 150 104.28 150"/>
        <polygon class="cls-1" points="103.3 150 140.73 115.91 140.73 116.81 104.28 150 103.3 150"/>
        <polygon class="cls-1" points="102.31 150 140.73 115.02 140.73 115.91 103.3 150 102.31 150"/>
        <polygon class="cls-1" points="101.33 150 140.73 114.12 140.73 115.02 102.31 150 101.33 150"/>
        <polygon class="cls-1" points="100.34 150 140.73 113.22 140.73 114.12 101.33 150 100.34 150"/>
        <polygon class="cls-1" points="99.36 150 140.73 112.33 140.73 113.22 100.34 150 99.36 150"/>
        <polygon class="cls-1" points="99.33 150 98.9 149.52 140.32 111.79 140.73 112.24 140.73 112.33 99.36 150 99.33 150"/>
        <rect class="cls-1" x="91.37" y="130.08" width="56.03" height=".66" transform="translate(-56.69 114.38) rotate(-42.32)"/>
        <rect class="cls-1" x="90.93" y="129.59" width="56.03" height=".66" transform="translate(-56.48 113.95) rotate(-42.32)"/>
        <rect class="cls-1" x="90.48" y="129.1" width="56.03" height=".66" transform="translate(-56.26 113.52) rotate(-42.32)"/>
        <rect class="cls-1" x="90.03" y="128.61" width="56.03" height=".66" transform="translate(-56.05 113.1) rotate(-42.32)"/>
        <rect class="cls-1" x="89.59" y="128.12" width="56.03" height=".66" transform="translate(-55.84 112.67) rotate(-42.32)"/>
        <rect class="cls-1" x="89.14" y="127.63" width="56.03" height=".66" transform="translate(-55.62 112.24) rotate(-42.32)"/>
        <rect class="cls-1" x="88.69" y="127.14" width="56.03" height=".66" transform="translate(-55.41 111.81) rotate(-42.32)"/>
        <rect class="cls-1" x="88.25" y="126.65" width="56.03" height=".66" transform="translate(-55.2 111.38) rotate(-42.32)"/>
        <rect class="cls-1" x="87.8" y="126.16" width="56.03" height=".66" transform="translate(-54.98 110.95) rotate(-42.32)"/>
        <rect class="cls-1" x="87.35" y="125.67" width="56.03" height=".66" transform="translate(-54.77 110.52) rotate(-42.32)"/>
        <rect class="cls-1" x="86.91" y="125.18" width="56.03" height=".66" transform="translate(-54.55 110.1) rotate(-42.32)"/>
        <rect class="cls-1" x="86.46" y="124.69" width="56.03" height=".66" transform="translate(-54.34 109.67) rotate(-42.32)"/>
        <rect class="cls-1" x="86.01" y="124.2" width="56.03" height=".66" transform="translate(-54.13 109.24) rotate(-42.32)"/>
        <rect class="cls-1" x="85.57" y="123.71" width="56.03" height=".66" transform="translate(-53.91 108.81) rotate(-42.32)"/>
        <rect class="cls-1" x="85.12" y="123.22" width="56.03" height=".66" transform="translate(-53.7 108.38) rotate(-42.32)"/>
        <rect class="cls-1" x="84.67" y="122.73" width="56.03" height=".66" transform="translate(-53.48 107.95) rotate(-42.32)"/>
        <rect class="cls-1" x="84.23" y="122.24" width="56.03" height=".66" transform="translate(-53.27 107.52) rotate(-42.32)"/>
        <polygon class="cls-1" points="91.31 141.19 62.34 109.38 62.34 71.61 103.73 71.61 132.73 103.46 91.31 141.19"/>
      </g>
    </g>
    <g>
      <polygon class="cls-4" points="10.28 125.03 27.91 132.37 35.25 150 88.67 96.58 63.7 71.61 10.28 125.03"/>
      <g class="cls-5">
        <polygon class="cls-1" points="10.28 119.76 37.1 150 10.28 150 10.28 119.76"/>
        <polygon class="cls-1" points="10.28 118.83 37.93 150 37.1 150 10.28 119.76 10.28 118.83"/>
        <polygon class="cls-1" points="10.28 117.89 38.76 150 37.93 150 10.28 118.83 10.28 117.89"/>
        <polygon class="cls-1" points="10.28 116.96 39.59 150 38.76 150 10.28 117.89 10.28 116.96"/>
        <polygon class="cls-1" points="10.28 116.02 40.41 150 39.59 150 10.28 116.96 10.28 116.02"/>
        <polygon class="cls-1" points="10.28 115.09 41.24 150 40.41 150 10.28 116.02 10.28 115.09"/>
        <polygon class="cls-1" points="10.28 114.15 42.07 150 41.24 150 10.28 115.09 10.28 114.15"/>
        <polygon class="cls-1" points="10.28 113.22 42.9 150 42.07 150 10.28 114.15 10.28 113.22"/>
        <polygon class="cls-1" points="10.28 112.28 43.73 150 42.9 150 10.28 113.22 10.28 112.28"/>
        <polygon class="cls-1" points="10.28 111.35 44.56 150 43.73 150 10.28 112.28 10.28 111.35"/>
        <polygon class="cls-1" points="10.28 110.41 45.39 150 44.56 150 10.28 111.35 10.28 110.41"/>
        <polygon class="cls-1" points="10.28 109.48 46.22 150 45.39 150 10.28 110.41 10.28 109.48"/>
        <polygon class="cls-1" points="10.28 108.54 47.05 150 46.22 150 10.28 109.48 10.28 108.54"/>
        <polygon class="cls-1" points="10.28 107.61 47.88 150 47.05 150 10.28 108.54 10.28 107.61"/>
        <polygon class="cls-1" points="10.28 107.47 10.68 107.12 48.5 149.77 48.24 150 47.88 150 10.28 107.61 10.28 107.47"/>
        <rect class="cls-1" x="29.51" y="99.73" width=".62" height="57" transform="translate(-77.57 52.08) rotate(-41.57)"/>
        <rect class="cls-1" x="29.97" y="99.32" width=".62" height="57" transform="translate(-77.18 52.28) rotate(-41.57)"/>
        <rect class="cls-1" x="30.44" y="98.91" width=".62" height="57" transform="translate(-76.79 52.49) rotate(-41.57)"/>
        <rect class="cls-1" x="30.9" y="98.5" width=".62" height="57" transform="translate(-76.4 52.69) rotate(-41.57)"/>
        <rect class="cls-1" x="31.37" y="98.09" width=".62" height="57" transform="translate(-76.01 52.89) rotate(-41.57)"/>
        <rect class="cls-1" x="31.83" y="97.68" width=".62" height="57" transform="translate(-75.62 53.1) rotate(-41.57)"/>
        <rect class="cls-1" x="32.29" y="97.27" width=".62" height="57" transform="translate(-75.23 53.3) rotate(-41.57)"/>
        <rect class="cls-1" x="32.76" y="96.85" width=".62" height="57" transform="translate(-74.84 53.51) rotate(-41.57)"/>
        <rect class="cls-1" x="33.22" y="96.44" width=".62" height="57" transform="translate(-74.45 53.71) rotate(-41.57)"/>
        <rect class="cls-1" x="33.69" y="96.03" width=".62" height="57" transform="translate(-74.06 53.92) rotate(-41.57)"/>
        <rect class="cls-1" x="34.15" y="95.62" width=".62" height="57" transform="translate(-73.68 54.12) rotate(-41.57)"/>
        <rect class="cls-1" x="34.61" y="95.21" width=".62" height="57" transform="translate(-73.29 54.32) rotate(-41.57)"/>
        <rect class="cls-1" x="35.08" y="94.8" width=".62" height="57" transform="translate(-72.9 54.53) rotate(-41.57)"/>
        <rect class="cls-1" x="35.54" y="94.38" width=".62" height="57" transform="translate(-72.51 54.73) rotate(-41.57)"/>
        <rect class="cls-1" x="36.01" y="93.97" width=".62" height="57" transform="translate(-72.12 54.94) rotate(-41.57)"/>
        <polygon class="cls-1" points="17.64 100.94 50.71 71.61 88.67 71.61 88.67 114.15 55.46 143.59 17.64 100.94"/>
      </g>
    </g>
  </g>
  <g>
    <path class="cls-3" d="M145.11,65.57l-.56,3.19c-.35,2-.35,4.05,0,6.06l.56,3.19c.71,4.04-.02,8.2-2.07,11.75l-1.62,2.8c-1.02,1.76-1.72,3.69-2.07,5.69l-.56,3.19c-.71,4.04-2.82,7.7-5.97,10.33l-2.48,2.08c-1.56,1.31-2.88,2.88-3.89,4.64l-1.62,2.8c-2.05,3.55-5.29,6.27-9.14,7.67l-3.04,1.11c-1.91.7-3.69,1.72-5.25,3.03l-2.48,2.08c-3.14,2.64-7.11,4.08-11.21,4.08h-3.24c-2.03,0-4.05.36-5.97,1.05l-3.04,1.11c-3.85,1.4-8.08,1.4-11.93,0l-3.04-1.11c-1.91-.7-3.93-1.05-5.97-1.05h-3.24c-4.1,0-8.07-1.44-11.21-4.08l-2.48-2.08c-1.56-1.31-3.33-2.33-5.25-3.03l-3.04-1.11c-3.85-1.4-7.09-4.12-9.14-7.67l-1.62-2.8c-1.02-1.76-2.34-3.33-3.89-4.64l-2.48-2.08c-3.14-2.64-5.25-6.29-5.97-10.33l-.56-3.19c-.35-2-1.05-3.93-2.07-5.69l-1.62-2.8c-2.05-3.55-2.78-7.71-2.07-11.75l.56-3.19c.35-2,.35-4.05,0-6.06l-.56-3.19c-.71-4.04.02-8.2,2.07-11.75l1.62-2.8c1.02-1.76,1.72-3.69,2.07-5.69l.56-3.19c.71-4.04,2.82-7.7,5.97-10.33l2.48-2.08c1.56-1.31,2.88-2.88,3.89-4.64l1.62-2.8c2.05-3.55,5.29-6.27,9.14-7.67l3.04-1.11c1.91-.7,3.69-1.72,5.25-3.03l2.48-2.08c3.14-2.64,7.11-4.08,11.21-4.08h3.24c2.03,0,4.05-.36,5.97-1.05l3.04-1.11c3.85-1.4,8.08-1.4,11.93,0l3.04,1.11c1.91.7,3.93,1.05,5.97,1.05h3.24c4.1,0,8.07,1.44,11.21,4.08l2.48,2.08c1.56,1.31,3.33,2.33,5.25,3.03l3.04,1.11c3.85,1.4,7.09,4.12,9.14,7.67l1.62,2.8c1.02,1.76,2.34,3.33,3.89,4.64l2.48,2.08c3.14,2.64,5.25,6.29,5.97,10.33l.56,3.19c.35,2,1.05,3.93,2.07,5.69l1.62,2.8c2.05,3.55,2.78,7.71,2.07,11.75Z"/>
    <path class="cls-2" d="M75.5,143.57c-2.15,0-4.3-.37-6.34-1.12l-3.04-1.11c-1.8-.65-3.68-.99-5.59-.99h-3.24c-4.36,0-8.59-1.54-11.92-4.34l-2.48-2.08c-1.46-1.23-3.11-2.18-4.91-2.83l-3.04-1.11c-4.09-1.49-7.54-4.39-9.72-8.16l-1.62-2.8c-.95-1.65-2.18-3.12-3.65-4.35l-2.48-2.08c-3.33-2.8-5.59-6.7-6.34-10.99l-.56-3.19c-.33-1.88-.98-3.67-1.94-5.33l-1.62-2.8c-2.18-3.77-2.96-8.21-2.2-12.5l.56-3.19c.33-1.88.33-3.79,0-5.67l-.56-3.19c-.76-4.28.03-8.73,2.2-12.5l1.62-2.8c.96-1.66,1.61-3.45,1.94-5.33l.56-3.19c.76-4.29,3.01-8.19,6.34-10.99l2.48-2.08c1.47-1.23,2.69-2.69,3.65-4.35l1.62-2.8c2.18-3.77,5.63-6.67,9.72-8.16l3.04-1.11c1.8-.65,3.45-1.61,4.91-2.83l2.48-2.08c3.33-2.8,7.57-4.34,11.92-4.34h3.24c1.91,0,3.79-.33,5.59-.99l3.04-1.11c4.09-1.49,8.59-1.49,12.69,0l3.04,1.11c1.8.65,3.68.99,5.59.99h3.24c4.35,0,8.59,1.54,11.92,4.34l2.48,2.08c1.46,1.23,3.11,2.18,4.91,2.83l3.04,1.11c4.09,1.49,7.55,4.39,9.72,8.16l1.62,2.8c.96,1.65,2.18,3.12,3.65,4.35l2.48,2.08c3.34,2.8,5.59,6.7,6.34,10.99l.56,3.18c.33,1.88.99,3.68,1.94,5.33l1.62,2.8c2.18,3.77,2.96,8.21,2.2,12.5l-.56,3.19c-.33,1.88-.33,3.79,0,5.67l.56,3.19c.76,4.28-.03,8.72-2.2,12.5l-1.62,2.8c-.95,1.66-1.6,3.45-1.94,5.33l-.56,3.19c-.75,4.28-3.01,8.19-6.34,10.99l-2.48,2.08c-1.47,1.23-2.69,2.69-3.65,4.35l-1.62,2.8c-2.18,3.77-5.63,6.67-9.72,8.16l-3.04,1.11c-1.8.65-3.45,1.61-4.91,2.83l-2.48,2.08c-3.34,2.8-7.57,4.34-11.92,4.34h-3.24c-1.91,0-3.79.33-5.59.99l-3.04,1.11c-2.05.74-4.2,1.12-6.34,1.12ZM57.3,5.43c-3.83,0-7.56,1.36-10.5,3.82l-2.48,2.08c-1.66,1.39-3.54,2.48-5.58,3.22l-3.04,1.11c-3.6,1.31-6.64,3.86-8.56,7.18l-1.62,2.8c-1.08,1.88-2.48,3.54-4.14,4.93l-2.48,2.08c-2.94,2.46-4.92,5.9-5.59,9.68l-.56,3.19c-.37,2.14-1.12,4.17-2.2,6.05l-1.62,2.8c-1.92,3.32-2.61,7.23-1.94,11l.56,3.19c.38,2.14.38,4.31,0,6.44l-.56,3.19c-.67,3.77.02,7.68,1.94,11l1.62,2.8c1.09,1.88,1.83,3.92,2.2,6.06l.56,3.18c.67,3.77,2.65,7.21,5.59,9.68l2.48,2.08c1.66,1.4,3.06,3.06,4.14,4.93l1.62,2.8c1.92,3.32,4.96,5.87,8.56,7.18l3.04,1.11c2.04.74,3.92,1.83,5.58,3.22l2.48,2.08c2.93,2.46,6.66,3.82,10.5,3.82h3.24c2.17,0,4.3.38,6.34,1.12l3.04,1.11c3.6,1.31,7.56,1.31,11.17,0l3.04-1.11c2.04-.74,4.18-1.12,6.34-1.12h3.24c3.83,0,7.56-1.36,10.5-3.82l2.48-2.08c1.66-1.39,3.54-2.48,5.58-3.22l3.04-1.11c3.6-1.31,6.64-3.86,8.56-7.18l1.62-2.8c1.09-1.88,2.48-3.54,4.14-4.93l2.48-2.08c2.94-2.47,4.92-5.9,5.59-9.67l.56-3.19c.38-2.14,1.12-4.17,2.2-6.05l1.62-2.8c1.92-3.32,2.61-7.23,1.94-11l-.56-3.19c-.38-2.14-.38-4.31,0-6.44l.56-3.19c.67-3.77-.02-7.68-1.94-11l-1.62-2.8c-1.08-1.88-1.83-3.92-2.2-6.05l-.56-3.19c-.66-3.77-2.65-7.21-5.59-9.68l-2.48-2.08c-1.66-1.39-3.06-3.06-4.14-4.93l-1.62-2.8c-1.92-3.32-4.96-5.87-8.56-7.18l-3.04-1.11c-2.04-.74-3.92-1.83-5.58-3.22l-2.48-2.08c-2.93-2.46-6.66-3.82-10.5-3.82h-3.24c-2.17,0-4.3-.38-6.34-1.12l-3.04-1.11c-3.61-1.31-7.58-1.31-11.17,0l-3.04,1.11c-2.04.74-4.18,1.12-6.34,1.12h-3.24Z"/>
  </g>
  <g>
    <circle class="cls-3" cx="75.5" cy="71.91" r="61.24"/>
    <path class="cls-2" d="M75.5,134.25c-34.38,0-62.34-27.97-62.34-62.34S41.13,9.57,75.5,9.57s62.34,27.97,62.34,62.34-27.97,62.34-62.34,62.34ZM75.5,11.78c-33.15,0-60.13,26.97-60.13,60.13s26.97,60.13,60.13,60.13,60.13-26.97,60.13-60.13S108.66,11.78,75.5,11.78Z"/>
  </g>
  <g>
    <path class="cls-2" d="M67.96,78.44c-.1-.23-.18-.35-.21-.48-.56-2.77-1.2-5.52-1.3-8.36-.13-3.78.2-7.49,1.58-11.07,1.58-4.07,4.11-7.43,7.45-10.2,3.3-2.74,7.04-4.69,11.01-6.25,3.92-1.53,7.98-2.59,12.1-3.36,2.69-.5,5.42-.79,8.13-1.18.33-.05.66-.1,1.12-.16.04.81.12,1.58.1,2.34-.06,2.38-.13,4.76-.27,7.14-.22,3.87-.56,7.74-1.58,11.5-1.3,4.77-3.66,8.96-6.99,12.6-3.28,3.58-7.21,6.21-11.72,7.97-2.28.89-4.65,1.5-7.09,1.8-2.61.32-5.23.62-7.84.93-.23.03-.46,0-.81,0,6.44-16.52,15.92-30.61,30.99-40.42-.03-.06-.06-.12-.09-.18-1.14.51-2.3.97-3.41,1.55-3.55,1.84-6.64,4.32-9.52,7.06-5.67,5.39-10.46,11.52-14.79,18-2.27,3.4-4.38,6.91-6.56,10.37-.07.11-.15.2-.3.39Z"/>
    <path class="cls-2" d="M64.74,63.6c-3.61-3.51-6.59-7.69-11.38-9.75.45.37.91.72,1.34,1.1,3.14,2.74,5.64,6.02,8.01,9.42.17.24.31.51.52.72,1.11,1.16,1.09,2.67,1.28,4.12.31,2.36.67,4.71,1.01,7.06,0,.06,0,.12-.01.26-.27-.02-.53-.02-.79-.06-4.69-.71-9.04-2.27-12.73-5.33-4.54-3.76-7.37-8.54-8.16-14.4-.4-3.02-.46-6.09-.67-9.13-.05-.69-.1-1.39-.09-2.08,0-.73.17-.87.87-.78,4.56.59,9.09,1.33,13.44,2.91,3.83,1.39,7.36,3.26,10.23,6.23.31.32.34.55.13.93-1.48,2.64-2.44,5.46-2.86,8.45-.01.1-.07.18-.12.32Z"/>
  </g>
  <circle class="cls-2" cx="29.74" cy="93.55" r="2.29"/>
  <circle class="cls-2" cx="117.68" cy="93.55" r="2.29"/>
  <g>
    <path class="cls-1" d="M49.37,86.17l-6.43,14.75h-2.7l-6.45-14.75h2.97l4.91,11.38,4.95-11.38h2.74Z"/>
    <path class="cls-1" d="M61.99,98.63v2.3h-11.06v-14.75h10.77v2.3h-8.03v3.84h7.12v2.25h-7.12v4.07h8.32Z"/>
    <path class="cls-1" d="M75.06,93.38h2.59v5.88c-.76.61-1.65,1.07-2.66,1.39-1.01.32-2.05.49-3.12.49-1.5,0-2.86-.33-4.07-.98-1.21-.65-2.16-1.56-2.84-2.71-.69-1.15-1.03-2.45-1.03-3.9s.34-2.75,1.03-3.9c.69-1.15,1.64-2.05,2.85-2.71,1.22-.65,2.58-.98,4.1-.98,1.24,0,2.36.2,3.37.61,1.01.41,1.86,1,2.55,1.79l-1.73,1.69c-1.12-1.12-2.48-1.69-4.07-1.69-1.04,0-1.96.22-2.77.65-.81.43-1.44,1.04-1.89,1.83-.46.79-.68,1.69-.68,2.7s.23,1.87.68,2.66c.46.79,1.09,1.4,1.89,1.85.81.45,1.73.67,2.75.67,1.15,0,2.16-.25,3.03-.76v-4.6Z"/>
    <path class="cls-1" d="M90.82,97.51h-7.37l-1.46,3.42h-2.82l6.64-14.75h2.7l6.66,14.75h-2.87l-1.48-3.42ZM89.91,95.36l-2.78-6.45-2.76,6.45h5.54Z"/>
    <path class="cls-1" d="M110.15,86.17v14.75h-2.26l-8.13-9.99v9.99h-2.72v-14.75h2.25l8.14,9.99v-9.99h2.72Z"/>
  </g>
</svg>