<?xml version="1.0" encoding="UTF-8"?>
<svg id="Layer_1" data-name="Layer 1" xmlns="http://www.w3.org/2000/svg" viewBox="0 0 150 150">
  <defs>
    <style>
      .cls-1 {
        fill: none;
      }

      .cls-1, .cls-2, .cls-3, .cls-4 {
        stroke-width: 0px;
      }

      .cls-2 {
        fill: #fff;
      }

      .cls-3 {
        fill: #231f20;
      }

      .cls-4 {
        fill: #d3b885;
      }
    </style>
  </defs>
  <g>
    <circle class="cls-2" cx="74.95" cy="75.1" r="72.6"/>
    <g>
      <path class="cls-1" d="m74.95,1.45C34.34,1.45,1.3,34.49,1.3,75.1s33.04,73.65,73.65,73.65,73.65-33.04,73.65-73.65S115.56,1.45,74.95,1.45Zm0,145.2C35.49,146.66,3.39,114.56,3.39,75.1S35.49,3.54,74.95,3.54s71.56,32.1,71.56,71.56-32.1,71.56-71.56,71.56Z"/>
      <path class="cls-4" d="m148.6,75.1C148.6,34.49,115.56,1.45,74.95,1.45S1.3,34.49,1.3,75.1s33.04,73.65,73.65,73.65,73.65-33.04,73.65-73.65Zm-73.65,71.56C35.49,146.66,3.39,114.56,3.39,75.1S35.49,3.54,74.95,3.54s71.56,32.1,71.56,71.56-32.1,71.56-71.56,71.56Z"/>
    </g>
  </g>
  <g>
    <path class="cls-4" d="m11.88,75.16c0-22.26,11.94-43.11,31.15-54.4l1.27,2.15c-18.45,10.85-29.92,30.87-29.92,52.25s11.47,41.4,29.92,52.25l-1.27,2.15c-19.22-11.29-31.15-32.14-31.15-54.41Z"/>
    <path class="cls-4" d="m98.25,19.24l.96-2.3c23.57,9.83,38.8,32.69,38.8,58.23s-15.12,48.21-38.52,58.11l-.97-2.3c22.47-9.51,36.99-31.41,36.99-55.81s-14.63-46.48-37.26-55.92Z"/>
  </g>
  <path class="cls-4" d="m67.83,51.57c-4.3-6.17-8.6-12.33-12.89-18.48.9-.87,1.86-1.8,2.92-2.82,3.16,2.25,6.48,4.62,9.83,7.01,1.33-1.65,2.6-3.27,3.92-4.84,5.32-6.31,11.13-12.09,17.87-16.9.8-.57,1.58-.87,2.56-.8.92.07,1.85.02,2.9.02-11.27,10.75-19.28,23.78-27.11,36.81Z"/>
  <g>
    <path class="cls-3" d="m57.29,59v23.99h-3.67l-13.23-16.25v16.25h-4.42v-23.99h3.67l13.23,16.25v-16.25h4.42Z"/>
    <path class="cls-3" d="m68.33,81.75c-1.97-1.06-3.51-2.54-4.63-4.42-1.12-1.89-1.68-3.99-1.68-6.33s.56-4.44,1.68-6.32c1.12-1.88,2.66-3.36,4.63-4.42,1.96-1.06,4.17-1.59,6.62-1.59s4.65.53,6.62,1.59c1.96,1.06,3.51,2.53,4.63,4.41,1.12,1.87,1.68,3.99,1.68,6.34s-.56,4.47-1.68,6.34c-1.12,1.87-2.66,3.34-4.63,4.41-1.97,1.06-4.17,1.59-6.62,1.59s-4.65-.53-6.62-1.59Zm10.93-3.39c1.28-.72,2.29-1.72,3.02-3.02.73-1.29,1.1-2.74,1.1-4.34s-.36-3.04-1.1-4.34c-.73-1.29-1.74-2.3-3.02-3.02-1.28-.72-2.72-1.08-4.32-1.08s-3.04.36-4.32,1.08c-1.28.72-2.28,1.72-3.01,3.02-.73,1.29-1.1,2.74-1.1,4.34s.36,3.05,1.1,4.34c.73,1.29,1.74,2.3,3.01,3.02,1.28.72,2.72,1.08,4.32,1.08s3.04-.36,4.32-1.08Z"/>
    <path class="cls-3" d="m113.92,59v23.99h-3.67l-13.23-16.25v16.25h-4.42v-23.99h3.67l13.23,16.25v-16.25h4.42Z"/>
    <path class="cls-3" d="m50.52,99.42h4.22v9.56c-1.23.98-2.67,1.74-4.32,2.26s-3.34.79-5.07.79c-2.45,0-4.65-.53-6.62-1.59-1.97-1.06-3.51-2.53-4.63-4.41-1.12-1.87-1.68-3.99-1.68-6.34s.56-4.47,1.68-6.34c1.12-1.87,2.67-3.34,4.64-4.41,1.98-1.06,4.2-1.59,6.67-1.59,2.01,0,3.84.33,5.49.99,1.64.66,3.03,1.63,4.15,2.91l-2.81,2.74c-1.83-1.83-4.03-2.74-6.62-2.74-1.69,0-3.19.35-4.51,1.06s-2.34,1.7-3.08,2.98c-.74,1.28-1.11,2.74-1.11,4.39s.37,3.04,1.11,4.32c.74,1.28,1.77,2.29,3.08,3.02,1.31.73,2.8,1.1,4.47,1.1,1.88,0,3.52-.41,4.94-1.23v-7.47Z"/>
    <path class="cls-3" d="m82.64,111.69l-.04-15.9-7.88,13.16h-1.99l-7.88-12.96v15.7h-4.25v-23.99h3.67l9.53,15.9,9.36-15.9h3.67l.03,23.99h-4.22Z"/>
    <path class="cls-3" d="m97.93,110.44c-1.96-1.06-3.51-2.54-4.63-4.42-1.12-1.89-1.68-3.99-1.68-6.33s.56-4.44,1.68-6.32c1.12-1.88,2.66-3.36,4.63-4.42,1.97-1.06,4.17-1.59,6.62-1.59s4.65.53,6.62,1.59,3.51,2.53,4.63,4.41c1.12,1.87,1.68,3.99,1.68,6.34s-.56,4.47-1.68,6.34c-1.12,1.87-2.66,3.34-4.63,4.41-1.97,1.06-4.17,1.59-6.62,1.59s-4.65-.53-6.62-1.59Zm10.94-3.39c1.28-.72,2.28-1.72,3.01-3.02.73-1.29,1.1-2.74,1.1-4.34s-.37-3.04-1.1-4.34c-.73-1.29-1.74-2.3-3.01-3.02-1.28-.72-2.72-1.08-4.32-1.08s-3.04.36-4.32,1.08c-1.28.72-2.29,1.72-3.02,3.02-.73,1.29-1.1,2.74-1.1,4.34s.37,3.05,1.1,4.34c.73,1.29,1.74,2.3,3.02,3.02,1.28.72,2.72,1.08,4.32,1.08s3.04-.36,4.32-1.08Z"/>
  </g>
</svg>