<?xml version="1.0" encoding="UTF-8"?>
<svg id="Layer_1" data-name="Layer 1" xmlns="http://www.w3.org/2000/svg" xmlns:xlink="http://www.w3.org/1999/xlink" viewBox="0 0 150 150">
  <defs>
    <style>
      .cls-1, .cls-2, .cls-3, .cls-4, .cls-5 {
        stroke-width: 0px;
      }

      .cls-2 {
        fill: none;
      }

      .cls-3 {
        fill: #fff;
      }

      .cls-4 {
        fill: #231f20;
      }

      .cls-6 {
        clip-path: url(#clippath);
      }

      .cls-5 {
        fill: #d3b885;
      }
    </style>
    <clipPath id="clippath">
      <path class="cls-2" d="m74.8,1.92C34.61,1.92,2.03,34.5,2.03,74.69s32.58,72.76,72.76,72.76,72.76-32.58,72.76-72.76S114.98,1.92,74.8,1.92Zm0,132.01c-32.72,0-59.25-26.53-59.25-59.25S42.07,15.44,74.8,15.44s59.25,26.53,59.25,59.25-26.53,59.25-59.25,59.25Z"/>
    </clipPath>
  </defs>
  <circle class="cls-3" cx="74.34" cy="74.61" r="72.84"/>
  <g>
    <g>
      <path class="cls-5" d="m74.8,148.37C34.16,148.37,1.11,115.32,1.11,74.69S34.16,1,74.8,1s73.69,33.06,73.69,73.69-33.06,73.69-73.69,73.69Zm0-145.53C35.18,2.85,2.96,35.07,2.96,74.69s32.23,71.84,71.84,71.84,71.84-32.23,71.84-71.84S114.41,2.85,74.8,2.85Zm0,132.01c-33.18,0-60.17-26.99-60.17-60.17S41.62,14.51,74.8,14.51s60.17,26.99,60.17,60.17-26.99,60.17-60.17,60.17Zm0-118.5c-32.16,0-58.33,26.16-58.33,58.33s26.17,58.33,58.33,58.33,58.33-26.16,58.33-58.33-26.16-58.33-58.33-58.33Z"/>
      <g class="cls-6">
        <g>
          <rect class="cls-5" x="74.33" y="-6.46" width=".92" height="81.15"/>
          <rect class="cls-5" x="37.67" y="33.8" width="81.15" height=".92" transform="translate(37.44 109.29) rotate(-85.11)"/>
          <rect class="cls-5" x="41.09" y="34.24" width="81.15" height=".92" transform="translate(33.62 109.29) rotate(-80.23)"/>
          <rect class="cls-5" x="44.46" y="34.96" width="81.15" height=".92" transform="translate(29.31 108.78) rotate(-75.39)"/>
          <rect class="cls-5" x="47.76" y="35.98" width="81.15" height=".92" transform="translate(24.49 107.53) rotate(-70.49)"/>
          <rect class="cls-5" x="50.96" y="37.27" width="81.15" height=".92" transform="translate(19.42 105.57) rotate(-65.65)"/>
          <rect class="cls-5" x="54.04" y="38.82" width="81.15" height=".92" transform="translate(14.13 102.67) rotate(-60.77)"/>
          <rect class="cls-5" x="56.98" y="40.63" width="81.15" height=".92" transform="translate(8.8 98.78) rotate(-55.87)"/>
          <rect class="cls-5" x="59.75" y="42.69" width="81.15" height=".92" transform="translate(3.66 93.98) rotate(-51.01)"/>
          <rect class="cls-5" x="62.34" y="44.97" width="81.15" height=".92" transform="translate(-1.19 88.07) rotate(-46.09)"/>
          <rect class="cls-5" x="64.72" y="47.47" width="81.15" height=".92" transform="translate(-5.47 81.32) rotate(-41.25)"/>
          <rect class="cls-5" x="66.89" y="50.16" width="81.15" height=".92" transform="translate(-9.08 73.59) rotate(-36.37)"/>
          <rect class="cls-5" x="68.81" y="53.02" width="81.15" height=".92" transform="translate(-11.82 65.07) rotate(-31.52)"/>
          <rect class="cls-5" x="70.49" y="56.03" width="81.15" height=".92" transform="translate(-13.54 55.88) rotate(-26.68)"/>
          <rect class="cls-5" x="71.9" y="59.18" width="81.15" height=".92" transform="translate(-14.09 45.86) rotate(-21.72)"/>
          <rect class="cls-5" x="73.05" y="62.44" width="81.15" height=".92" transform="translate(-13.39 35.79) rotate(-16.92)"/>
          <rect class="cls-5" x="73.91" y="65.78" width="81.15" height=".92" transform="translate(-11.29 25.3) rotate(-12.02)"/>
          <rect class="cls-5" x="74.48" y="69.18" width="81.15" height=".92" transform="translate(-7.74 14.79) rotate(-7.11)"/>
          <rect class="cls-5" x="74.76" y="72.62" width="81.15" height=".92" transform="translate(-2.79 4.61) rotate(-2.26)"/>
          <rect class="cls-5" x="114.87" y="35.96" width=".92" height="81.15" transform="translate(33.63 188.26) rotate(-87.39)"/>
          <rect class="cls-5" x="114.56" y="39.4" width=".92" height="81.15" transform="translate(20.76 183.6) rotate(-82.52)"/>
          <rect class="cls-5" x="113.97" y="42.79" width=".92" height="81.15" transform="translate(8.5 177.31) rotate(-77.64)"/>
          <rect class="cls-5" x="113.09" y="46.13" width=".92" height="81.15" transform="translate(-2.9 169.48) rotate(-72.77)"/>
          <rect class="cls-5" x="111.93" y="49.38" width=".92" height="81.15" transform="translate(-13.25 160.23) rotate(-67.9)"/>
          <rect class="cls-5" x="110.49" y="52.52" width=".92" height="81.15" transform="translate(-22.34 149.74) rotate(-63.02)"/>
          <rect class="cls-5" x="108.8" y="55.52" width=".92" height="81.15" transform="translate(-30.03 138.19) rotate(-58.15)"/>
          <rect class="cls-5" x="106.85" y="58.38" width=".92" height="81.15" transform="translate(-36.17 125.79) rotate(-53.27)"/>
          <rect class="cls-5" x="104.67" y="61.05" width=".92" height="81.15" transform="translate(-40.66 112.77) rotate(-48.4)"/>
          <rect class="cls-5" x="102.28" y="63.53" width=".92" height="81.15" transform="translate(-43.45 99.37) rotate(-43.53)"/>
          <rect class="cls-5" x="99.68" y="65.8" width=".92" height="81.15" transform="translate(-44.51 85.84) rotate(-38.65)"/>
          <rect class="cls-5" x="96.89" y="67.84" width=".92" height="81.15" transform="translate(-43.84 72.42) rotate(-33.78)"/>
          <rect class="cls-5" x="93.94" y="69.63" width=".92" height="81.15" transform="translate(-41.51 59.36) rotate(-28.9)"/>
          <rect class="cls-5" x="90.86" y="71.17" width=".92" height="81.15" transform="translate(-37.59 46.87) rotate(-24.03)"/>
          <rect class="cls-5" x="87.65" y="72.44" width=".92" height="81.15" transform="translate(-32.2 35.17) rotate(-19.15)"/>
          <rect class="cls-5" x="84.34" y="73.43" width=".92" height="81.15" transform="translate(-25.5 24.44) rotate(-14.28)"/>
          <rect class="cls-5" x="80.96" y="74.14" width=".92" height="81.15" transform="translate(-17.65 14.85) rotate(-9.41)"/>
          <rect class="cls-5" x="77.54" y="74.56" width=".92" height="81.15" transform="translate(-8.85 6.52) rotate(-4.53)"/>
          <rect class="cls-5" x="33.98" y="114.8" width="81.15" height=".92" transform="translate(-41.18 189.08) rotate(-89.64)"/>
          <rect class="cls-5" x="30.53" y="114.63" width="81.15" height=".92" transform="translate(-49.97 175.46) rotate(-84.79)"/>
          <rect class="cls-5" x="27.11" y="114.17" width="81.15" height=".92" transform="translate(-57.03 161.19) rotate(-79.91)"/>
          <rect class="cls-5" x="23.74" y="113.42" width="81.15" height=".92" transform="translate(-62.31 146.63) rotate(-75.04)"/>
          <rect class="cls-5" x="20.45" y="112.39" width="81.15" height=".92" transform="translate(-65.84 131.96) rotate(-70.16)"/>
          <rect class="cls-5" x="17.26" y="111.08" width="81.15" height=".92" transform="translate(-67.67 117.52) rotate(-65.32)"/>
          <rect class="cls-5" x="14.19" y="109.51" width="81.15" height=".92" transform="translate(-67.91 103.26) rotate(-60.4)"/>
          <rect class="cls-5" x="11.26" y="107.68" width="81.15" height=".92" transform="translate(-66.66 89.69) rotate(-55.54)"/>
          <rect class="cls-5" x="8.5" y="105.61" width="81.15" height=".92" transform="translate(-64.08 76.83) rotate(-50.68)"/>
          <rect class="cls-5" x="5.93" y="103.31" width="81.15" height=".92" transform="translate(-60.31 64.76) rotate(-45.8)"/>
          <rect class="cls-5" x="3.56" y="100.8" width="81.15" height=".92" transform="translate(-55.57 53.72) rotate(-40.96)"/>
          <rect class="cls-5" x="1.41" y="98.1" width="81.15" height=".92" transform="translate(-50 43.64) rotate(-36.09)"/>
          <rect class="cls-5" x="-.5" y="95.22" width="81.15" height=".92" transform="translate(-43.72 34.52) rotate(-31.15)"/>
          <rect class="cls-5" x="-2.16" y="92.2" width="81.15" height=".92" transform="translate(-37.12 26.66) rotate(-26.33)"/>
          <rect class="cls-5" x="-3.55" y="89.04" width="81.15" height=".92" transform="translate(-30.11 19.68) rotate(-21.4)"/>
          <rect class="cls-5" x="-4.67" y="85.78" width="81.15" height=".92" transform="translate(-23.13 13.84) rotate(-16.59)"/>
          <rect class="cls-5" x="-5.52" y="82.43" width="81.15" height=".92" transform="translate(-16.1 8.84) rotate(-11.71)"/>
          <rect class="cls-5" x="-6.07" y="79.03" width="81.15" height=".92" transform="translate(-9.18 4.65) rotate(-6.81)"/>
          <rect class="cls-5" x="-6.33" y="75.59" width="81.15" height=".92" transform="translate(-2.57 1.21) rotate(-1.95)"/>
          <rect class="cls-5" x="33.81" y="32.02" width=".92" height="81.15" transform="translate(-39.99 103.09) rotate(-87.05)"/>
          <rect class="cls-5" x="34.14" y="28.59" width=".92" height="81.15" transform="translate(-38.63 94.02) rotate(-82.18)"/>
          <rect class="cls-5" x="34.75" y="25.19" width=".92" height="81.15" transform="translate(-36.69 85.66) rotate(-77.3)"/>
          <rect class="cls-5" x="35.65" y="21.86" width=".92" height="81.15" transform="translate(-34.31 78.02) rotate(-72.43)"/>
          <rect class="cls-5" x="36.83" y="18.62" width=".92" height="81.15" transform="translate(-31.66 71.06) rotate(-67.55)"/>
          <rect class="cls-5" x="38.28" y="15.49" width=".92" height="81.15" transform="translate(-28.85 64.76) rotate(-62.68)"/>
          <rect class="cls-5" x="40" y="12.49" width=".92" height="81.15" transform="translate(-26.01 59.03) rotate(-57.81)"/>
          <rect class="cls-5" x="41.96" y="9.65" width=".92" height="81.15" transform="translate(-23.23 53.8) rotate(-52.93)"/>
          <rect class="cls-5" x="44.15" y="6.99" width=".92" height="81.15" transform="translate(-20.59 48.96) rotate(-48.06)"/>
          <rect class="cls-5" x="46.57" y="4.53" width=".92" height="81.15" transform="translate(-18.13 44.4) rotate(-43.18)"/>
          <rect class="cls-5" x="49.18" y="2.27" width=".92" height="81.15" transform="translate(-15.87 40) rotate(-38.31)"/>
          <rect class="cls-5" x="51.98" y=".25" width=".92" height="81.15" transform="translate(-13.82 35.65) rotate(-33.44)"/>
          <rect class="cls-5" x="54.93" y="-1.53" width=".92" height="81.15" transform="translate(-11.93 31.24) rotate(-28.56)"/>
          <rect class="cls-5" x="58.03" y="-3.05" width=".92" height="81.15" transform="translate(-10.15 26.66) rotate(-23.69)"/>
          <rect class="cls-5" x="61.25" y="-4.3" width=".92" height="81.15" transform="translate(-8.4 21.84) rotate(-18.81)"/>
          <rect class="cls-5" x="64.56" y="-5.27" width=".92" height="81.15" transform="translate(-6.59 16.7) rotate(-13.94)"/>
          <rect class="cls-5" x="67.94" y="-5.96" width=".92" height="81.15" transform="translate(-4.6 11.21) rotate(-9.06)"/>
          <rect class="cls-5" x="71.37" y="-6.35" width=".92" height="81.15" transform="translate(-2.31 5.34) rotate(-4.19)"/>
        </g>
      </g>
    </g>
    <g>
      <path class="cls-4" d="m35.89,41.21c.64-.12,1.24.05,1.81.51.57.46.85,1.02.86,1.67,0,.65-.27,1.31-.82,1.99l-1.05,1.28,1.58,1.29-.61.74-5.21-4.27,1.67-2.03c.55-.68,1.15-1.07,1.79-1.19Zm1.76,2.33c0-.41-.18-.77-.56-1.08-.38-.31-.77-.42-1.17-.34-.4.08-.8.36-1.19.83l-1.04,1.26,2.33,1.92,1.04-1.27c.39-.47.58-.91.58-1.33Z"/>
      <path class="cls-4" d="m41.62,34.81l4.53,4.98-.71.64-2.02-2.22-2.86,2.6,2.02,2.22-.71.64-4.53-4.98.71-.65,1.95,2.14,2.86-2.6-1.95-2.14.71-.65Z"/>
      <path class="cls-4" d="m50.16,34.96l-2.98,1.99.32,1.81-.82.55-1.2-7.29.79-.53,6.28,3.9-.84.56-1.55-.99Zm-.7-.45l-3.04-1.94.62,3.55,2.42-1.61Z"/>
      <path class="cls-4" d="m57.15,33.22l-2.21-1.23c-.16.09-.28.15-.37.2l-1.5.72.89,1.85-.87.42-2.92-6.07,2.37-1.14c.78-.37,1.49-.49,2.13-.33s1.11.57,1.42,1.23c.22.47.3.92.23,1.36-.07.44-.29.84-.64,1.19l2.42,1.35-.94.45Zm-1.87-2.71c.17-.38.16-.79-.06-1.23s-.52-.71-.92-.8-.88,0-1.43.26l-1.47.71,1.32,2.73,1.47-.71c.55-.26.91-.58,1.09-.96Z"/>
      <path class="cls-4" d="m65.19,30.55l-1.38-4.71-1.2,4.6-.43.12-3.47-3.22,1.36,4.68-.89.26-1.88-6.47.76-.22,4.02,3.76,1.34-5.32.76-.22,1.89,6.46-.89.26Z"/>
      <path class="cls-4" d="m71.73,27.87l-3.55.43-.53,1.76-.98.12,2.22-7.05.95-.12,3.84,6.32-1,.12-.94-1.58Zm-.43-.72l-1.84-3.1-1.05,3.45,2.89-.35Z"/>
      <path class="cls-4" d="m75.56,29.03c-.54-.31-.95-.73-1.25-1.26s-.44-1.12-.43-1.77c.01-.65.18-1.24.49-1.75.32-.52.75-.92,1.3-1.21.55-.29,1.16-.42,1.84-.41.53.01,1,.11,1.44.29s.8.45,1.1.81l-.64.59c-.5-.54-1.12-.82-1.88-.83-.5-.01-.95.1-1.36.31-.41.22-.73.52-.96.91-.23.39-.36.83-.37,1.32,0,.49.1.93.32,1.33.22.4.53.71.93.95s.85.35,1.35.36c.75.02,1.39-.24,1.91-.77l.61.62c-.31.34-.69.6-1.14.77-.44.17-.93.25-1.45.24-.67-.01-1.28-.17-1.81-.48Z"/>
      <path class="cls-4" d="m85.91,29.54l-.12.83-4.83-.74,1.02-6.66,4.7.72-.13.83-3.75-.57-.31,2.04,3.34.51-.12.81-3.34-.51-.33,2.15,3.88.59Z"/>
      <path class="cls-4" d="m87.93,30.19c-.33-.63-.35-1.42-.07-2.33l1.11-3.66.92.28-1.1,3.62c-.42,1.38-.03,2.25,1.18,2.62.59.18,1.09.14,1.51-.1.42-.25.73-.72.95-1.42l1.1-3.63.9.27-1.11,3.66c-.28.92-.74,1.56-1.37,1.9-.63.34-1.37.39-2.23.12-.86-.26-1.45-.71-1.78-1.35Z"/>
      <path class="cls-4" d="m97.58,28.1l-2.1-.96.35-.76,5.07,2.31-.35.76-2.1-.96-2.44,5.37-.87-.4,2.44-5.37Z"/>
      <path class="cls-4" d="m102.18,29.47l.84.48-3.32,5.86-.84-.48,3.32-5.86Z"/>
      <path class="cls-4" d="m102.43,37.04c-.27-.55-.38-1.14-.33-1.74.05-.6.26-1.17.64-1.71.38-.53.84-.93,1.4-1.18s1.14-.34,1.76-.26c.62.07,1.2.3,1.75.69.43.3.77.65,1.02,1.05.26.39.41.82.46,1.28l-.86.13c-.11-.73-.47-1.31-1.09-1.74-.41-.29-.84-.46-1.3-.51-.46-.05-.9.02-1.31.21-.41.19-.76.48-1.04.88-.28.4-.44.82-.48,1.28-.04.45.04.89.24,1.3s.5.77.91,1.06c.61.43,1.28.58,2.01.43l.16.86c-.45.11-.91.11-1.37,0-.46-.11-.91-.31-1.34-.62-.55-.39-.96-.86-1.23-1.42Z"/>
      <path class="cls-4" d="m110.79,42.2l-2.61-2.44-1.69.72-.72-.68,6.83-2.83.7.65-2.37,7.01-.74-.69.61-1.74Zm.28-.79l1.2-3.4-3.32,1.42,2.12,1.99Z"/>
      <path class="cls-4" d="m116.54,40.97l.61.74-4.55,3.75,2.32,2.81-.65.53-2.93-3.55,5.19-4.28Z"/>
    </g>
    <g>
      <circle class="cls-5" cx="27.82" cy="54.42" r="2.68"/>
      <circle class="cls-5" cx="121.77" cy="54.42" r="2.68"/>
    </g>
    <g>
      <path class="cls-1" d="m93.59,46.48c-3.61-3.76-8.08-5.42-13.29-4.96-2.04.18-3.91.92-5.65,1.66-1.51.64-2.62,1.66-3.4,3.1-.73,1.36-.82,2.59-.26,3.75.04.09.13.31.06.5-.16.49-1.09,1.06-1.58,1.06h-1.71v1.48h1.91v1.89h.22c.36,0,.69,0,1.03,0,.06,0,.11,0,.18-.01,0-.09,0-.19,0-.28.01-.35.02-.67-.02-.99-.11-.8.17-1.44.88-1.95.2-.15.54-.25.78-.16,2.58,1.01,6.51-.43,7.92-2.93.6-1.07,1.29-1.21,2.36-1.11,4.99.48,9.11,5.45,8.65,10.42-.5,5.37-4.61,9.13-9.99,9.16-1.12,0-2.23,0-3.35,0h-2.31v4.89c.89-.02,1.78-.02,2.68-.03,2.07,0,4.21-.01,6.28-.26,4.01-.48,7.31-2.37,9.82-5.62,4.41-5.71,3.88-14.33-1.19-19.61Zm-19.01,1.65h-.04c-.88-.02-1.53-.7-1.52-1.59,0-.89.66-1.54,1.56-1.54.44,0,.85.16,1.13.45.29.29.44.71.43,1.16-.02.86-.7,1.52-1.55,1.52Z"/>
      <path class="cls-1" d="m64.34,64.56h3.19s0,9.54,0,9.54h6.05v-9.55h3.25c1.72,0,3.45.01,5.17,0,2.21-.02,4.07-.87,5.53-2.53,1.11-1.26,1.68-2.72,1.76-4.46h-37.48v.02c0,.15,0,.28,0,.42.42,3.77,3.48,6.52,7.28,6.55,1.75.02,3.5.01,5.24,0Z"/>
      <path class="cls-1" d="m76.35,86.91c1.94-.63,3.11-1.84,3.57-3.7.52-2.09-.08-3.86-1.78-5.28-1.01-.84-2.27-1.24-3.86-1.24h-.6c-2.76,0-5.52,0-8.28,0-1.1,0-1.87-.62-2.12-1.68-.22-.91.25-1.85,1.16-2.34.17-.09.34-.15.54-.22.05-.02.09-.03.14-.05v-4.92c-.12.02-.25.03-.37.05-.4.05-.78.1-1.14.19-3.27.85-5.51,4.08-5.09,7.34.45,3.49,3.38,6.14,6.82,6.16,2,.01,4.01.01,6.01,0h2.73c1.64,0,2.25.6,2.25,2.23v3.45Z"/>
      <path class="cls-1" d="m81.73,91.8c-2.95-.56-5.22-.98-7.35-1.35-.59-.11-.81-.37-.8-.96.02-1.01.02-2.01.01-3.02,0-.91,0-1.82,0-2.73,0-.2-.03-.26-.05-.29-.02-.02-.09-.05-.27-.05h-.03c-1.27.01-2.56.02-3.83,0h-1.91v6.82l-.33.1c-.09.03-.18.06-.26.07l-1.89.35c-1.84.34-3.68.69-5.52,1.01-.84.15-1.45.48-1.8.98-.33.47-.44,1.1-.32,1.88h26.35v-.36c0-1.52-.54-2.19-2.01-2.47Z"/>
    </g>
    <g>
      <path class="cls-4" d="m51.02,109.61h2.25v5.11c-.66.53-1.43.93-2.31,1.21-.88.28-1.78.42-2.71.42-1.31,0-2.48-.28-3.53-.85s-1.87-1.35-2.47-2.35-.9-2.13-.9-3.39.3-2.39.9-3.39,1.43-1.79,2.48-2.35c1.06-.57,2.24-.85,3.56-.85,1.07,0,2.05.18,2.93.53.88.35,1.62.87,2.22,1.56l-1.5,1.46c-.98-.98-2.15-1.46-3.53-1.46-.9,0-1.71.19-2.41.57-.7.38-1.25.91-1.65,1.59s-.6,1.46-.6,2.34.2,1.62.6,2.31.95,1.22,1.65,1.61c.7.39,1.5.59,2.39.59,1,0,1.88-.22,2.64-.66v-3.99Z"/>
      <path class="cls-4" d="m64.79,116.17l-2.62-3.75c-.11.01-.28.02-.49.02h-2.89v3.74h-2.38v-12.82h5.27c1.11,0,2.08.18,2.9.55.82.37,1.46.89,1.9,1.58.44.68.66,1.5.66,2.44s-.24,1.79-.7,2.49c-.47.7-1.14,1.22-2.02,1.56l2.95,4.21h-2.56Zm-.86-10.15c-.54-.44-1.33-.66-2.36-.66h-2.78v5.11h2.78c1.04,0,1.82-.22,2.36-.67.54-.45.81-1.08.81-1.9s-.27-1.45-.81-1.89Z"/>
      <path class="cls-4" d="m78.1,113.2h-6.41l-1.26,2.97h-2.45l5.77-12.82h2.34l5.79,12.82h-2.49l-1.28-2.97Zm-.79-1.87l-2.42-5.6-2.4,5.6h4.82Z"/>
      <path class="cls-4" d="m83.5,103.35h5.6c1.37,0,2.58.27,3.64.8,1.06.53,1.89,1.28,2.47,2.25.59.97.88,2.09.88,3.36s-.29,2.39-.88,3.36c-.59.97-1.41,1.72-2.47,2.25-1.06.53-2.28.8-3.64.8h-5.6v-12.82Zm5.49,10.81c.94,0,1.77-.18,2.48-.54.71-.36,1.26-.87,1.65-1.54.38-.67.58-1.44.58-2.32s-.19-1.65-.58-2.32c-.38-.67-.93-1.18-1.65-1.54-.71-.36-1.54-.54-2.48-.54h-3.11v8.79h3.11Z"/>
      <path class="cls-4" d="m108.24,114.17v2h-9.61v-12.82h9.36v2h-6.98v3.33h6.19v1.96h-6.19v3.53h7.23Z"/>
    </g>
  </g>
</svg>