<?xml version="1.0" encoding="UTF-8"?>
<svg id="Layer_1" data-name="Layer 1" xmlns="http://www.w3.org/2000/svg" viewBox="0 0 150 150">
  <defs>
    <style>
      .cls-1 {
        fill: #fff;
      }

      .cls-1, .cls-2, .cls-3 {
        stroke-width: 0px;
      }

      .cls-2 {
        fill: #231f20;
      }

      .cls-3 {
        fill: #d3b885;
      }
    </style>
  </defs>
  <polygon class="cls-1" points="74.87 1.04 91.2 9.61 109.64 9.61 120.12 24.79 136.45 33.37 138.68 51.68 149.15 66.86 142.61 84.1 144.84 102.41 131.03 114.64 124.49 131.89 106.58 136.3 92.78 148.53 74.87 144.12 56.96 148.53 43.15 136.3 25.24 131.89 18.7 114.64 4.9 102.41 7.12 84.1 .58 66.86 11.06 51.68 13.28 33.37 29.61 24.79 40.09 9.61 58.53 9.61 74.87 1.04"/>
  <g>
    <g>
      <path class="cls-2" d="m40.19,109.35l-1.96,2.02,2.91,2.83-.69.71-2.91-2.83-2.28,2.35-.83-.8,5.63-5.8,4.1,3.97-.7.72-3.26-3.17Z"/>
      <path class="cls-2" d="m42.02,119.78c-.34-.67-.48-1.37-.43-2.1.05-.73.29-1.42.74-2.06.44-.64.99-1.12,1.66-1.43.67-.31,1.37-.42,2.11-.34.74.08,1.45.34,2.12.8.67.46,1.17,1.03,1.5,1.69s.48,1.36.43,2.09c-.05.73-.3,1.42-.75,2.06s-1,1.12-1.66,1.43c-.66.3-1.36.42-2.1.34-.74-.08-1.45-.34-2.11-.8-.67-.46-1.18-1.03-1.52-1.69Zm3.65,1.42c.54.05,1.06-.05,1.55-.29.5-.23.91-.59,1.24-1.07.33-.48.52-1,.57-1.54.04-.54-.06-1.06-.29-1.55-.24-.5-.6-.91-1.09-1.24-.49-.34-1.01-.53-1.56-.58-.55-.05-1.07.04-1.56.27-.49.24-.91.59-1.24,1.08s-.52,1-.56,1.54c-.04.55.06,1.07.3,1.56.24.5.61.91,1.1,1.25.49.34,1,.53,1.55.58Z"/>
      <path class="cls-2" d="m51.34,125.43c-.46-.59-.73-1.25-.82-1.98-.09-.72.02-1.45.33-2.16.31-.71.76-1.28,1.36-1.71.59-.43,1.26-.68,2-.75.74-.07,1.49.06,2.24.38.74.32,1.34.78,1.8,1.36.46.59.73,1.25.82,1.97.09.72-.02,1.45-.34,2.16-.31.72-.76,1.3-1.35,1.73-.59.43-1.25.68-2,.75s-1.49-.06-2.23-.38c-.75-.33-1.35-.78-1.81-1.38Zm3.85.69c.54-.06,1.03-.25,1.47-.57.44-.33.78-.76,1.01-1.29.23-.54.32-1.08.26-1.63-.06-.54-.26-1.03-.59-1.47-.33-.43-.76-.77-1.31-1-.54-.24-1.09-.33-1.64-.27-.55.06-1.04.24-1.48.57-.44.33-.78.76-1.01,1.29-.23.54-.32,1.08-.25,1.62.06.55.26,1.04.59,1.47.33.44.77.78,1.32,1.01.54.23,1.09.33,1.63.26Z"/>
      <path class="cls-2" d="m61.73,121.38l3.33.73c.84.19,1.54.52,2.11.99.57.47.97,1.05,1.2,1.73s.25,1.4.08,2.18c-.17.77-.5,1.42-.99,1.93s-1.1.87-1.82,1.06c-.72.19-1.49.19-2.33,0l-3.33-.73,1.75-7.9Zm1.73,7.63c.64.14,1.23.14,1.77,0,.54-.14.99-.4,1.36-.79.36-.39.61-.88.74-1.46.13-.59.11-1.14-.05-1.64-.16-.51-.46-.94-.89-1.29s-.96-.61-1.6-.75l-2.13-.47-1.31,5.93,2.13.47Z"/>
      <path class="cls-2" d="m74.55,131.22c-.57-.18-1.02-.41-1.35-.71l.41-.91c.31.27.71.5,1.19.66s.98.24,1.49.23c.67-.01,1.17-.13,1.49-.36s.49-.54.48-.92c0-.28-.1-.5-.28-.67-.19-.17-.41-.3-.68-.39-.27-.09-.64-.19-1.13-.29-.61-.14-1.1-.27-1.48-.41-.38-.15-.7-.36-.97-.66-.27-.3-.41-.71-.42-1.22,0-.43.1-.82.32-1.17s.56-.63,1.02-.85c.46-.22,1.03-.33,1.72-.34.48,0,.95.05,1.41.16s.86.29,1.2.51l-.37.93c-.34-.21-.71-.37-1.09-.47s-.76-.15-1.13-.15c-.66.01-1.15.13-1.47.38-.32.24-.48.56-.47.93,0,.28.1.5.29.67.19.17.42.3.69.4s.65.19,1.12.29c.61.14,1.1.27,1.47.41.37.14.69.36.96.66.27.29.41.69.42,1.21,0,.42-.1.81-.33,1.17s-.57.64-1.04.85c-.47.22-1.04.33-1.73.34-.61.01-1.19-.08-1.77-.26Z"/>
      <path class="cls-2" d="m86.92,128.28l-4.24.71-.55,2.14-1.17.19,2.29-8.57,1.13-.19,4.95,7.37-1.2.2-1.21-1.85Zm-.55-.85l-2.37-3.63-1.07,4.2,3.44-.57Z"/>
      <path class="cls-2" d="m90.38,122.16l.89,2.67,3.84-1.29.32.94-3.85,1.29,1.04,3.1-1.1.37-2.57-7.67,5.41-1.81.32.96-4.32,1.45Z"/>
      <path class="cls-2" d="m104.22,122.72l.46.89-5.22,2.69-3.71-7.19,5.07-2.62.46.89-4.04,2.09,1.14,2.21,3.6-1.86.45.87-3.6,1.86,1.2,2.32,4.19-2.16Z"/>
      <path class="cls-2" d="m104.25,115.37l-2.25,1.61-.59-.82,5.44-3.89.59.82-2.26,1.61,4.12,5.76-.93.67-4.12-5.76Z"/>
      <path class="cls-2" d="m113.38,113.38l1.92,2.03-.83.79-1.94-2.05-5.95-1.61.89-.85,4.81,1.31-1.05-4.88.83-.79,1.31,6.05Z"/>
    </g>
    <g>
      <path class="cls-2" d="m49.08,33.74c-.74.03-1.43-.12-2.08-.47-.64-.34-1.17-.85-1.58-1.52-.41-.67-.62-1.37-.63-2.1-.01-.73.17-1.42.54-2.06.37-.65.9-1.18,1.59-1.6.54-.33,1.09-.54,1.65-.64.56-.09,1.1-.06,1.63.1l-.26,1.01c-.85-.23-1.67-.1-2.44.37-.51.31-.91.71-1.18,1.19-.27.48-.41,1-.39,1.54s.17,1.07.48,1.57c.3.5.7.88,1.18,1.14s1,.38,1.55.36c.55-.02,1.09-.19,1.6-.5.77-.47,1.25-1.14,1.43-2.02l1.02.23c-.1.55-.32,1.05-.66,1.51s-.78.86-1.31,1.18c-.69.43-1.4.65-2.15.69Z"/>
      <path class="cls-2" d="m60.13,27.68l.38.93-5.43,2.22-3.06-7.48,5.28-2.16.38.93-4.21,1.73.94,2.3,3.75-1.53.37.9-3.75,1.54.99,2.42,4.36-1.79Z"/>
      <path class="cls-2" d="m67.24,26.94l-2.26-2.02c-.21.06-.37.11-.49.14l-1.95.45.56,2.4-1.12.26-1.83-7.88,3.07-.71c1.02-.24,1.88-.18,2.58.17.7.35,1.15.96,1.35,1.81.14.61.11,1.16-.09,1.66-.2.5-.56.91-1.07,1.23l2.48,2.21-1.23.28Zm-1.48-3.67c.3-.4.39-.88.26-1.45-.13-.57-.42-.97-.87-1.18s-1.03-.24-1.74-.08l-1.91.44.82,3.55,1.91-.45c.71-.16,1.22-.44,1.52-.84Z"/>
      <path class="cls-2" d="m70.63,19.4l-2.77.22-.08-1,6.67-.52.08,1-2.77.22.55,7.06-1.14.09-.55-7.06Z"/>
      <path class="cls-2" d="m76.35,18.16l1.15.03-.2,8.08-1.15-.03.2-8.08Z"/>
      <path class="cls-2" d="m81.54,19.44l-.36,2.8,4.02.52-.13.98-4.02-.52-.42,3.25-1.15-.15,1.03-8.02,5.66.73-.13,1-4.51-.58Z"/>
      <path class="cls-2" d="m88.31,19.56l1.12.27-1.89,7.86-1.12-.27,1.89-7.86Z"/>
      <path class="cls-2" d="m95.61,29.28l-.34.94-5.52-1.99,2.75-7.61,5.36,1.94-.34.94-4.28-1.55-.84,2.34,3.81,1.38-.33.92-3.81-1.38-.89,2.45,4.43,1.6Z"/>
      <path class="cls-2" d="m100.61,23.79l2.96,1.69c.74.43,1.32.95,1.73,1.57.41.62.62,1.29.63,2,.01.72-.18,1.42-.57,2.1s-.9,1.21-1.52,1.56-1.3.51-2.05.47c-.74-.03-1.49-.26-2.23-.69l-2.96-1.69,4.01-7.02Zm-.61,7.81c.57.32,1.13.5,1.69.52.56.02,1.07-.09,1.53-.36.46-.26.84-.66,1.14-1.18.3-.52.44-1.05.44-1.58,0-.53-.16-1.03-.47-1.5s-.74-.86-1.31-1.19l-1.89-1.08-3.01,5.28,1.89,1.08Z"/>
    </g>
  </g>
  <path class="cls-3" d="m92.78,148.53l-17.91-4.41-17.91,4.41-13.81-12.23-17.91-4.41-6.54-17.25-13.81-12.23,2.22-18.31L.58,66.86l10.48-15.18,2.22-18.31,16.33-8.57,10.48-15.18h18.44L74.87,1.04l16.33,8.57h18.44l10.48,15.18,16.33,8.57,2.22,18.31,10.48,15.18-6.54,17.25,2.22,18.31-13.81,12.23-6.54,17.25-17.91,4.41-13.81,12.23Zm-17.91-6.24l17.43,4.3,13.44-11.9,17.43-4.3,6.37-16.78,13.44-11.9-2.16-17.82,6.37-16.78-10.2-14.77-2.16-17.82-15.89-8.34-10.2-14.77h-17.95l-15.89-8.34-15.89,8.34h-17.95l-10.2,14.77-15.89,8.34-2.16,17.82-10.2,14.77,6.37,16.78-2.16,17.82,13.44,11.9,6.37,16.78,17.43,4.3,13.44,11.9,17.43-4.3Z"/>
  <g>
    <path class="cls-3" d="m74.91,118c-15.26,0-29.54-8.18-37.28-21.35l1.48-.87c7.43,12.65,21.15,20.5,35.81,20.5s28.37-7.86,35.81-20.5l1.48.87c-7.74,13.17-22.03,21.35-37.28,21.35Z"/>
    <path class="cls-3" d="m36.58,58.82l-1.58-.66c6.74-16.15,22.4-26.59,39.9-26.59s33.04,10.36,39.82,26.39l-1.58.67c-6.51-15.4-21.53-25.35-38.24-25.35s-31.85,10.02-38.32,25.54Z"/>
  </g>
  <g>
    <path class="cls-2" d="m36.42,64.59v23.1h-4.29v-9.9h-11.95v9.9h-4.29v-23.1h4.29v9.54h11.95v-9.54h4.29Z"/>
    <path class="cls-2" d="m57.61,82.34h-11.55l-2.28,5.35h-4.42l10.4-23.1h4.22l10.43,23.1h-4.49l-2.31-5.35Zm-1.42-3.37l-4.36-10.1-4.32,10.1h8.68Z"/>
    <path class="cls-2" d="m71.39,86.49c-1.88-1.02-3.36-2.44-4.42-4.24s-1.6-3.84-1.6-6.11.54-4.3,1.62-6.1,2.56-3.22,4.44-4.24c1.88-1.02,3.99-1.54,6.32-1.54,1.89,0,3.62.33,5.18.99,1.56.66,2.88,1.62,3.96,2.87l-2.77,2.61c-1.67-1.8-3.73-2.71-6.17-2.71-1.58,0-3,.35-4.26,1.04-1.26.69-2.23,1.66-2.94,2.89-.7,1.23-1.06,2.63-1.06,4.19s.35,2.96,1.06,4.19c.7,1.23,1.68,2.19,2.94,2.89,1.25.69,2.67,1.04,4.26,1.04,2.44,0,4.5-.91,6.17-2.74l2.77,2.64c-1.08,1.25-2.41,2.21-3.98,2.87-1.57.66-3.31.99-5.2.99-2.33,0-4.44-.51-6.32-1.53Z"/>
    <path class="cls-2" d="m94.88,86.49c-1.88-1.02-3.36-2.44-4.42-4.24s-1.6-3.84-1.6-6.11.54-4.3,1.62-6.1c1.08-1.8,2.56-3.22,4.44-4.24,1.88-1.02,3.99-1.54,6.32-1.54,1.89,0,3.62.33,5.18.99,1.56.66,2.88,1.62,3.96,2.87l-2.77,2.61c-1.67-1.8-3.73-2.71-6.17-2.71-1.58,0-3,.35-4.26,1.04-1.26.69-2.23,1.66-2.94,2.89-.7,1.23-1.06,2.63-1.06,4.19s.35,2.96,1.06,4.19c.7,1.23,1.68,2.19,2.94,2.89,1.25.69,2.67,1.04,4.26,1.04,2.44,0,4.5-.91,6.17-2.74l2.77,2.64c-1.08,1.25-2.41,2.21-3.98,2.87-1.57.66-3.31.99-5.2.99-2.33,0-4.44-.51-6.32-1.53Z"/>
    <path class="cls-2" d="m129.24,65.58c1.49.66,2.62,1.61,3.41,2.84.79,1.23,1.19,2.7,1.19,4.39s-.4,3.13-1.19,4.37c-.79,1.24-1.93,2.19-3.41,2.86-1.49.66-3.23.99-5.23.99h-5.21v6.67h-4.29v-23.1h9.5c2,0,3.75.33,5.23.99Zm-1.17,10.63c.97-.79,1.45-1.92,1.45-3.4s-.48-2.61-1.45-3.4-2.39-1.19-4.26-1.19h-5.02v9.17h5.02c1.87,0,3.29-.4,4.26-1.19Z"/>
  </g>
</svg>